<svg width="170" height="120" viewBox="0 0 170 120" fill="none" xmlns="http://www.w3.org/2000/svg">
<g clip-path="url(#clip0_4_386)">
<path fill-rule="evenodd" clip-rule="evenodd" d="M95.6499 91.0881L95.2664 91.145L95.2174 91.5192L94.9237 91.7226L94.4668 91.8039C94.4421 91.7398 94.4256 91.6729 94.4178 91.6046H94.2342L94.2057 91.1979L94.9767 91.1409L95.1154 90.7342L95.4214 90.7098L95.7804 90.7627L95.6499 91.0881Z" fill="white"/>
<path fill-rule="evenodd" clip-rule="evenodd" d="M93.7166 91.9178L93.1658 92.0033L93.1699 91.6209L93.3902 91.2792L93.7492 91.5314L93.7166 91.9178Z" fill="white"/>
<path fill-rule="evenodd" clip-rule="evenodd" d="M108.531 70.0061L108.029 69.1194L106.769 68.8143L106.284 68.6557L105.265 69.1682L106.048 69.9125L107.622 69.9736L107.944 70.0915L107.74 70.3518L108.123 71.0677L107.65 71.6209L107.087 71.7633L106.537 71.4663L107.389 71.1043L107.454 70.6976L105.008 70.3803L104.6 69.9369L104.192 70.9782L103.377 71.206L102.969 73.2723L103.026 73.976L102.329 74.3828L101.248 74.9441L100.432 74.9685L99.6169 73.7808L99.5313 73.0567L100.518 72.2432L101.847 71.8853L101.664 71.1409L101.081 71.2752L100.726 70.1607L101.843 69.3472L102.088 67.7202L102.904 67.1344L103.756 66.8456L104.037 66.7073L103.311 65.6539L102.545 66.5324L101.794 65.8776L101.195 66.0728L100.787 65.5603L101.003 64.8403L101.684 64.0757C96.0982 62.5387 90.1557 62.9242 84.8161 65.1699C79.4765 67.4156 75.0513 71.3905 72.2548 76.4531L73.1071 76.022L73.784 76.0464L74.8809 75.7576L75.1501 76.1114L76.7812 75.3671L76.3041 74.9603L74.885 75.6233L75.0522 75.1556L74.7504 74.8342L73.4781 75.4728L74.3386 73.7482L75.6639 73.0771L76.7322 73.6262L77.7925 73.1584L78.1105 72.231H78.6896L78.2614 73.496L77.1441 74.094C77.3398 74.3278 77.5107 74.5814 77.6538 74.8505L79.077 74.098L79.0321 73.6303L79.9904 73.0608L79.8232 72.4303L79.183 72.6134L79.1178 71.9992L79.4929 71.6331L81.0996 70.9294L80.6266 72.1497L81.071 72.6785L82.0334 72.3653L81.4217 71.2955L82.0619 70.4129L83.4973 69.4773L86.1846 69.3472L86.5924 70.1851L87.3876 69.9939L87.3631 70.844L86.3722 71.3443L86.4619 72.2432L83.9174 72.8615L85.2182 70.9986L84.2558 70.7667L82.8082 71.7429L82.7511 71.9463V71.9829L82.535 72.6663L81.8132 73.13L82.0538 73.4635L82.3678 73.4269L82.4167 73.5611L81.8621 73.9475L81.9967 74.3177L81.438 74.6309L80.9976 74.0004L80.1331 74.8139L78.661 77.0917L79.3298 77.8239L80.1128 77.9174L81.3361 77.4863L82.013 78.8245L82.5105 78.4503L82.4901 77.1649L83.534 76.1521L82.7185 74.5495L83.1263 73.6872L84.998 73.2357L85.4058 74.3502L85.8543 74.1224L86.7759 72.9022L87.5303 74.2526L88.7006 74.3421L89.0758 75.1881L88.3662 75.8959L88.562 76.144L89.8343 76.0992L90.1034 76.6606L89.8098 76.8436L88.3377 77.0836L88.0686 76.6768L88.3132 76.2213L88.1216 75.843L87.6608 75.9365L87.7342 76.3433L87.0777 76.8151H86.992L87.0124 76.8558L86.7759 77.0104L86.3681 76.7094H86.0867L85.577 76.9819L85.4302 77.2829L85.6504 77.7141L86.1683 77.6286L86.6291 77.4659L86.5598 77.5717L86.3722 78.2062L86.0949 78.0679L85.6667 78.1615L85.1121 79.6665L85.312 79.7071L84.2069 81.3341L83.5177 83.5916L83.7461 84.3156L82.7878 85.9915L82.4289 87.0816L83.2445 88.4726L82.0212 88.5133L81.6134 87.6754L78.8486 89.0706L77.7558 90.5064L77.7191 91.9585L77.927 92.9917L78.7834 93.6791L79.9782 93.2316L81.1567 91.1328L81.6297 91.6494L81.593 92.9591L83.0814 92.5076L84.3047 94.5414L86.3437 93.915L86.833 91.9382L88.4315 91.4989L89.296 91.9585L90.6335 91.1775L90.4704 90.7505L91.4246 90.726L92.9538 91.6331L94.4463 90.9132L95.4698 91.5884L96.1467 92.7151L98.0959 92.5198L100.172 91.4907L101.293 92.1822L102.349 92.0195L102.59 92.9103L102.235 94.696L103.369 97.6571L102.818 98.8245L101.464 99.4753L101.391 100.472L102.467 101.765L101.949 104.369L101.925 105.467L100.869 106.837L100.017 107.444L100.188 107.85L100.922 107.708L101.048 108.168L100.759 109.014L101.326 109.27L102.039 108.944L102.263 109.494L102.353 110.116L102.496 110.567L103.964 110.909L104.05 111.426L102.647 112.117L100.653 111.601L98.6138 110.258L97.839 108.342L96.4648 107.671L95.8613 105.638L95.3026 105.743L93.2637 101.749C93.2637 101.749 91.3634 101.395 91.2941 101.428C91.2248 101.46 90.4786 101.627 90.4786 101.627L89.9484 100.931L87.0532 99.6136L86.833 98.7269L86.2091 97.4212L87.0246 95.9487L86.0867 94.5739L84.2273 95.3345L82.013 94.456L80.8794 94.6797L80.1821 94.8912L79.9537 94.2689L79.0811 94.5536L79.2523 94.8871L76.9402 95.4078L75.4804 94.5739L75.5048 93.793L73.2539 92.5727L72.3323 91.3199L71.8022 91.5884L72.6585 92.833L74.2529 93.7604L74.4283 94.3543L73.6127 94.6227L71.8715 93.5082L70.9336 91.6534H69.7102L69.0782 90.4007C69.2477 93.2108 69.8829 95.9734 70.9581 98.5764L71.0029 98.6943C71.06 98.8408 71.1293 98.9831 71.1946 99.1418L71.2924 99.337L71.4474 99.6787L71.6024 100.02L71.7369 100.285L71.8062 100.423C72.1162 101.037 72.4342 101.643 72.789 102.184L73.1071 102.709C75.8646 107 79.8393 110.377 84.5258 112.409C89.2122 114.441 94.3987 115.038 99.4258 114.122C104.453 113.206 109.093 110.82 112.757 107.267C116.421 103.714 118.943 99.1538 120.002 94.1672L119.402 92.9835L117.902 92.2392L116.948 90.36L115.924 90.0346L115.459 89.2902L115.5 87.1914L112.397 85.1454L111.581 83.0832L110.024 83.677L109.183 83.4004L108.193 83.9007L107.932 84.6288L106.17 85.5156L106.194 85.6945L105.216 86.1867L101.676 84.7712L100.702 82.7781L100.995 82.4568L100.746 81.6189L100.216 81.8873L99.6047 81.1999L101.256 78.0232L100.571 76.7053L101.489 75.3671L102.015 75.1556L103.059 74.6268L103.666 73.7808L106.182 72.2473L106.867 73.5977L109.224 73.0567L109.775 73.1462L110.154 72.9551L109.787 72.231L110.231 70.665L108.531 70.0061Z" fill="#0090A5"/>
<path fill-rule="evenodd" clip-rule="evenodd" d="M107.402 78.8041L107.312 79.9024L107.581 80.4352L108.173 80.1342L108.87 78.8408L108.629 78.2591L108.013 78.2916L107.402 78.8041Z" fill="#0090A5"/>
<path fill-rule="evenodd" clip-rule="evenodd" d="M109.489 79.9146L110.24 79.5363L111.194 78.9262L111.398 78.0476L110.745 78.1167L110.272 77.9093L109.449 77.4212L108.71 76.4775L107.944 77.0877L107.895 77.5758L108.103 77.9866L108.641 78.0679L109.42 78.1371L109.673 78.5276L109.122 78.9709L109.489 79.9146Z" fill="#0090A5"/>
<path d="M97.2722 19.9471C97.2722 19.9471 94.2138 21.1674 93.0598 38.6171C93.0598 38.6171 86.4334 17.9052 92.2687 11.8772C92.2687 11.8772 95.5146 14.1306 97.2722 19.9471Z" fill="#0090A5"/>
<path d="M103.336 18.076C103.336 18.076 93.3208 52.2432 169.568 44.2261C169.568 44.2261 157.086 51.3728 133.748 48.2001C111.08 45.1129 88.6272 32.3408 103.336 18.076Z" fill="#29275C"/>
<path d="M108.629 7.12224C108.629 7.12224 110.305 6.47957 111.006 5.21457L132.48 5.78402L111.581 10.5186C111.581 10.5186 111.173 9.24955 108.702 7.93574L129.116 6.1379L108.629 7.12224Z" fill="#BD1F2D"/>
<path d="M88.6925 29.1194C88.46 29.7173 88.2847 32.0317 87.2122 35.3346C86.2295 38.3323 84.8267 41.1226 83.95 44.8851C82.5554 50.9538 82.2862 58.8733 82.4249 62.408C83.6931 60.72 83.7461 59.3329 85.1611 55.2085C88.2765 46.1704 91.5184 38.9953 88.6925 29.1194Z" fill="#5B1F59"/>
<path d="M80.1535 29.701C70.7378 30.9213 62.2478 34.5821 54.4633 39.4265C53.3695 40.1448 52.212 40.7616 51.0053 41.2691C59.9765 40.4922 66.0932 38.0151 73.4537 33.6669C75.5823 32.4019 78.0494 31.2711 80.1535 29.701Z" fill="#29275C"/>
<path d="M53.7619 37.5107C41.1696 41.7409 31.179 36.1074 21.066 30.9376C31.5134 39.4956 42.1279 45.6742 53.7619 37.5107Z" fill="#29275C"/>
<path d="M40.1583 44.0228C37.1526 44.2002 34.1441 43.7228 31.3421 42.6235C24.2956 39.7763 22.167 34.0818 16.7435 33.9597C14.3376 33.9109 12.3802 34.9929 11.218 35.782C13.8258 35.6606 16.4249 36.1626 18.7987 37.2463C22.3301 38.9099 22.5258 40.724 26.6811 42.7659C29.1008 43.9823 31.7508 44.6753 34.4575 44.7997C36.3876 44.8534 38.3134 44.591 40.1583 44.0228Z" fill="#046737"/>
<path d="M32.3412 45.7637C29.7351 46.0706 27.0961 45.9427 24.5321 45.3854C17.0045 43.7299 12.4414 38.7676 10.7736 36.7501C13.0483 36.8786 15.2751 37.4537 17.3266 38.4422C20.3605 39.9146 21.2862 41.5294 24.104 43.1971C26.6245 44.6524 29.4384 45.5291 32.3412 45.7637Z" fill="#046737"/>
<path d="M140.485 57.7181C143.257 55.9882 146.322 54.7766 149.529 54.1428C157.216 52.6622 162.321 54.4234 166.799 51.1816C168.195 50.1413 169.298 48.7582 170 47.167C169.213 47.6693 168.396 48.123 167.553 48.5255C166.226 49.1465 164.85 49.6567 163.439 50.0508C158.545 51.3646 154.154 49.9329 148.991 51.7185C148.991 51.7185 143.49 53.6953 140.468 57.7181H140.485Z" fill="#0090A5"/>
<path d="M164.536 54.0655C164.536 54.0655 158.24 61.2772 146.756 57.7751C147.909 56.7483 149.261 55.9688 150.728 55.4851C153.905 54.4763 155.915 55.5257 160.23 55.0132C161.693 54.8397 163.135 54.5223 164.536 54.0655Z" fill="#0090A5"/>
<path d="M37.5526 46.3657C37.5526 46.3657 44.2198 49.2943 49.468 44.9908C45.5818 50.9904 41.5978 50.604 37.5526 46.3657Z" fill="#0090A5"/>
<path d="M65.9709 41.0169C61.8104 46.0852 58.8336 52.0141 57.2566 58.373C55.6255 64.9664 51.4172 65.0803 49.0276 63.0384C47.7308 61.9321 47.3189 59.4997 47.3271 58.6984C47.3516 54.4844 50.1653 47.3622 65.9709 41.0169Z" fill="#BD1F2D"/>
<path d="M124.451 50.4373C124.451 50.4373 127.799 51.206 134.825 50.8033C138.609 50.5837 139.155 53.6913 138.262 55.062C137.702 55.7596 136.949 56.2784 136.097 56.5548C133.781 57.0917 129.438 56.9127 124.451 50.4373Z" fill="#BD1F2D"/>
<path d="M122.098 51.3321C122.069 56.0179 121.282 58.6862 120.467 60.2807C120.279 60.6549 119.741 61.684 120.059 62.7863C120.244 63.381 120.601 63.9078 121.086 64.3002C121.571 64.6925 122.161 64.9328 122.783 64.9909C124.312 65.0722 125.393 63.734 125.515 63.5835C128.182 60.2929 122.387 51.7511 122.098 51.3321Z" fill="#046737"/>
<path d="M94.3362 40.5898C94.3362 40.5898 93.0517 46.1257 96.9174 53.1259C99.3152 57.4659 98.4425 60.8298 96.1019 60.9721C94.85 61.0494 93.4105 59.9715 93.015 59.5404C90.9434 57.291 88.9167 52.0683 94.3362 40.5898Z" fill="#046737"/>
<path d="M97.8512 33.5815C97.8512 33.5815 98.8462 36.3352 102.231 39.6583C104.584 41.9646 108.421 44.3807 112.491 47.0287C120.687 52.3571 118.008 58.7147 113.771 60.2563C111.581 61.0535 96.9623 63.3516 97.8512 33.5815Z" fill="#F2A51A"/>
<path d="M77.3969 37.0063C77.3969 37.0063 73.2457 40.724 72.6544 57.2992C72.475 62.408 71.5249 65.5237 70.3015 67.3907C67.5449 71.5802 61.4853 70.1119 60.7146 64.9746C59.7522 58.5479 61.5261 46.6382 77.3969 37.0063Z" fill="#F2A51A"/>
<path d="M0 38.5479C4.26874 39.1214 8.35203 40.651 11.9439 43.0222C17.4857 46.7724 18.5214 50.5959 22.3831 53.7482C25.939 56.6525 32.2392 59.2679 44.2321 57.2585C30.5428 62.3226 23.6024 60.5939 19.7652 57.8361C16.5029 55.481 15.4468 52.3246 9.19955 46.2152C6.34149 43.4204 3.26529 40.8566 0 38.5479Z" fill="#0090A5"/>
<path d="M51.8045 44.1814C51.0175 46.268 49.0398 50.543 44.6153 53.2967C42.9321 54.4039 41.003 55.0839 38.9961 55.2776C37.8543 55.3549 34.5431 55.5827 32.545 53.3455C32.3207 53.0933 30.551 51.0555 31.3217 49.1722C31.917 47.7527 33.699 47.0653 35.1181 47.11C38.0827 47.1995 38.8493 50.4454 41.3042 51.1572C43.2411 51.7144 46.3933 50.783 51.8045 44.1814Z" fill="#0090A5"/>
<path d="M58.5941 63.8275C57.3975 66.1387 56.7738 68.7024 56.7754 71.3036C56.7958 73.5611 57.3422 74.6105 57.5624 74.9929C58.3128 76.2986 60.0458 78.1045 62.0725 77.7832C62.1744 77.7832 63.8545 77.47 64.4336 76.1277C65.0126 74.7854 64.0258 73.4757 63.9442 73.3577C62.7984 71.8568 61 72.4426 59.6748 71.5274C58.5411 70.7383 57.6766 68.7899 58.5941 63.8275Z" fill="#0090A5"/>
<path d="M99.7026 3.51027C100.547 3.43536 101.395 3.61515 102.136 4.02636C102.876 4.43757 103.476 5.06123 103.858 5.81655C105.644 5.56437 107.769 5.31218 110.219 5.09254C110.219 5.09254 90.5805 -7.92353 83.3913 7.65101C80.5369 13.8174 84.9287 21.3219 83.2486 28.676C80.6796 39.9146 75.7903 47.0694 75.5782 55.965C75.2969 67.6673 74.6159 67.5249 74.6159 67.5249C74.6159 67.5249 78.2329 63.9496 80.3248 50.8481C81.3116 44.6085 83.481 39.1784 85.3528 33.3577C88.1583 24.637 86.4945 19.1214 88.5742 14.3258C90.0238 11.1692 92.6385 8.69228 95.8735 7.41102C95.9463 6.41418 96.3709 5.47532 97.0719 4.76118C97.7729 4.04703 98.705 3.60383 99.7026 3.51027Z" fill="#5B1F59"/>
<path d="M99.8901 5.64571C100.301 5.60868 100.713 5.69399 101.075 5.89084C101.437 6.08768 101.732 6.38722 101.924 6.75154C102.115 7.11587 102.194 7.52859 102.15 7.9375C102.106 8.3464 101.941 8.7331 101.677 9.04866C101.412 9.36422 101.06 9.59445 100.664 9.71022C100.269 9.82599 99.8476 9.82209 99.4542 9.69902C99.0608 9.57595 98.7128 9.33924 98.4543 9.01884C98.1958 8.69845 98.0385 8.30877 98.0021 7.89912L100.078 7.71608L99.8901 5.64571Z" fill="#0090A5"/>
<path d="M104.29 8.12692C104.199 9.03575 103.814 9.89055 103.195 10.5633C102.576 11.236 101.754 11.6905 100.854 11.8586C99.9542 12.0267 99.0237 11.8994 98.2023 11.4958C97.3808 11.0922 96.7125 10.4339 96.2976 9.6197C94.0996 10.3559 93.2555 11.0474 93.2555 11.0474C96.9256 14.1143 97.9369 19.4794 97.9369 19.4794C102.402 14.1591 109.869 11.4826 109.869 11.4826C108.266 8.76959 104.869 8.20421 104.29 8.12692Z" fill="#0090A5"/>
<path d="M98.8301 7.14258C99.1231 7.14258 99.3605 6.90584 99.3605 6.6138C99.3605 6.32176 99.1231 6.08502 98.8301 6.08502C98.5372 6.08502 98.2998 6.32176 98.2998 6.6138C98.2998 6.90584 98.5372 7.14258 98.8301 7.14258Z" fill="white"/>
<path d="M54.7079 67.5452C54.7079 67.5452 45.7368 68.5011 43.4328 60.1464C43.1066 70.2135 47.4861 71.5233 54.7079 67.5452Z" fill="#0090A5"/>
<path d="M97.0153 119.919C91.6485 120.3 86.2743 119.285 81.4188 116.973C76.5633 114.661 72.3929 111.131 69.3159 106.728C66.2389 102.326 64.3606 97.2014 63.8651 91.8574C63.3695 86.5133 64.2736 81.1325 66.4888 76.2416C66.606 76.0574 66.7861 75.9217 66.9959 75.8597C67.2056 75.7977 67.4308 75.8136 67.6297 75.9043C67.8287 75.9951 67.9879 76.1547 68.078 76.3535C68.1681 76.5524 68.183 76.777 68.1199 76.986C65.1734 83.4694 64.7048 90.8037 66.8024 97.6078C68.9 104.412 73.4191 110.216 79.5086 113.928C85.5982 117.64 92.8381 119.003 99.8652 117.761C106.892 116.519 113.222 112.757 117.661 107.183C117.733 107.083 117.824 106.999 117.929 106.935C118.034 106.872 118.151 106.83 118.272 106.813C118.394 106.796 118.518 106.804 118.637 106.836C118.755 106.868 118.866 106.924 118.962 107C119.058 107.077 119.138 107.172 119.196 107.28C119.254 107.388 119.29 107.507 119.3 107.629C119.311 107.751 119.297 107.874 119.258 107.99C119.22 108.107 119.158 108.214 119.076 108.306C116.4 111.654 113.059 114.414 109.263 116.412C105.466 118.411 101.296 119.605 97.0153 119.919Z" fill="#0090A5"/>
<path d="M118.55 84.218C118.55 84.218 124.133 82.5341 125.075 77.1934C125.854 82.8595 123.223 84.698 118.55 84.218Z" fill="#0090A5"/>
<path d="M112.185 64.1407C114.056 64.4824 117.947 65.4871 120.932 68.7696C122.115 70.0104 122.978 71.5193 123.448 73.1666C123.684 74.1143 124.377 76.8273 122.799 78.8611C122.624 79.0848 121.168 80.8745 119.476 80.4881C118.191 80.2075 117.347 78.8204 117.168 77.6409C116.793 75.1515 119.407 74.0208 119.615 71.8568C119.81 70.1688 118.55 67.6632 112.185 64.1407Z" fill="#0090A5"/>
</g>
<defs>
<clipPath id="clip0_4_386">
<rect width="170" height="120" fill="white"/>
</clipPath>
</defs>
</svg>
