<svg width="16" height="16" viewBox="0 0 16 16" fill="none" xmlns="http://www.w3.org/2000/svg">
<path d="M8 14C11.3137 14 14 11.3137 14 8C14 4.68629 11.3137 2 8 2C4.68629 2 2 4.68629 2 8C2 11.3137 4.68629 14 8 14Z" stroke="#1E293B" stroke-width="1.25" stroke-linecap="round" stroke-linejoin="round"/>
<path d="M6.5 5.25H9.5L7.75 7.75C8.03778 7.75002 8.32111 7.82101 8.57491 7.95668C8.8287 8.09236 9.04511 8.28852 9.20499 8.52781C9.36486 8.7671 9.46325 9.04212 9.49145 9.32852C9.51965 9.61491 9.47679 9.90384 9.36666 10.1697C9.25652 10.4356 9.08252 10.6702 8.86007 10.8528C8.63761 11.0353 8.37357 11.1602 8.09132 11.2164C7.80907 11.2725 7.51733 11.2582 7.24194 11.1747C6.96654 11.0911 6.716 10.941 6.5125 10.7375" stroke="#1E293B" stroke-width="1.25" stroke-linecap="round" stroke-linejoin="round"/>
</svg>
