<svg width="16" height="16" viewBox="0 0 16 16" fill="none" xmlns="http://www.w3.org/2000/svg">
<path d="M8 14C11.3137 14 14 11.3137 14 8C14 4.68629 11.3137 2 8 2C4.68629 2 2 4.68629 2 8C2 11.3137 4.68629 14 8 14Z" stroke="#1E293B" stroke-width="1.25" stroke-linecap="round" stroke-linejoin="round"/>
<path d="M6.61875 5.91874C6.75356 5.6004 6.99418 5.3384 7.29992 5.17706C7.60567 5.01571 7.95776 4.96492 8.29663 5.03329C8.63551 5.10165 8.94037 5.28497 9.15965 5.55223C9.37892 5.81949 9.49915 6.15429 9.5 6.49999C9.50135 6.79866 9.41199 7.09071 9.24375 7.33749V7.33749L6.5 11H9.5" stroke="#1E293B" stroke-width="1.25" stroke-linecap="round" stroke-linejoin="round"/>
</svg>
