<svg width="24" height="24" viewBox="0 0 24 24" fill="none" xmlns="http://www.w3.org/2000/svg">
<path d="M12 8.25001C12 6.18751 13.7344 4.47188 15.7969 4.50001C16.5192 4.50834 17.2237 4.72512 17.8258 5.12426C18.4278 5.52341 18.9018 6.08795 19.1906 6.75001H22.5L19.4719 9.77813C19.2765 12.8199 17.93 15.6731 15.7061 17.7576C13.4823 19.8421 10.5481 21.0015 7.50002 21C4.50002 21 3.75002 19.875 3.75002 19.875C3.75002 19.875 6.75002 18.75 8.25002 16.5C8.25002 16.5 2.25002 13.5 3.75002 5.25001C3.75002 5.25001 7.50002 9.00001 12 9.75001V8.25001Z" stroke="#1E293B" stroke-linecap="round" stroke-linejoin="round"/>
</svg>
