<svg width="54" height="30" viewBox="0 0 54 30" fill="none" xmlns="http://www.w3.org/2000/svg">
<g clip-path="url(#clip0_77_209)">
<path fill-rule="evenodd" clip-rule="evenodd" d="M23.4882 22.772L23.3941 22.7862L23.382 22.8798L23.3099 22.9306L23.1978 22.951C23.1917 22.9349 23.1877 22.9182 23.1858 22.9011H23.1407L23.1337 22.7995L23.323 22.7852L23.357 22.6835L23.4321 22.6774L23.5202 22.6906L23.4882 22.772Z" fill="#F8FAFC"/>
<path fill-rule="evenodd" clip-rule="evenodd" d="M23.0135 22.9795L22.8784 23.0008L22.8794 22.9052L22.9334 22.8198L23.0216 22.8829L23.0135 22.9795Z" fill="#F8FAFC"/>
<path fill-rule="evenodd" clip-rule="evenodd" d="M26.6515 17.5015L26.5283 17.2798L26.2189 17.2036L26.0998 17.1639L25.8494 17.292L26.0417 17.4781L26.4282 17.4934L26.5073 17.5229L26.4572 17.588L26.5514 17.7669L26.4352 17.9052L26.297 17.9408L26.1618 17.8666L26.3711 17.7761L26.3872 17.6744L25.7863 17.5951L25.6862 17.4842L25.5861 17.7446L25.3858 17.8015L25.2856 18.3181L25.2997 18.494L25.1284 18.5957L24.8631 18.736L24.6628 18.7421L24.4625 18.4452L24.4415 18.2642L24.6838 18.0608L25.0103 17.9713L24.9652 17.7852L24.822 17.8188L24.7349 17.5402L25.0093 17.3368L25.0693 16.93L25.2696 16.7836L25.4789 16.7114L25.548 16.6768L25.3698 16.4135L25.1815 16.6331L24.9972 16.4694L24.85 16.5182L24.7499 16.3901L24.803 16.2101L24.9702 16.0189C23.5984 15.6347 22.1392 15.731 20.8279 16.2925C19.5167 16.8539 18.43 17.8476 17.7433 19.1133L17.9526 19.0055L18.1188 19.0116L18.3882 18.9394L18.4543 19.0279L18.8548 18.8418L18.7377 18.7401L18.3892 18.9058L18.4303 18.7889L18.3561 18.7086L18.0437 18.8682L18.255 18.437L18.5805 18.2693L18.8428 18.4065L19.1032 18.2896L19.1813 18.0578H19.3235L19.2183 18.374L18.944 18.5235C18.992 18.582 19.034 18.6453 19.0691 18.7126L19.4186 18.5245L19.4076 18.4076L19.6429 18.2652L19.6019 18.1076L19.4446 18.1533L19.4286 17.9998L19.5207 17.9083L19.9153 17.7323L19.7991 18.0374L19.9083 18.1696L20.1446 18.0913L19.9944 17.8239L20.1516 17.6032L20.5041 17.3693L21.164 17.3368L21.2641 17.5463L21.4594 17.4985L21.4534 17.711L21.2101 17.8361L21.2321 18.0608L20.6072 18.2154L20.9267 17.7496L20.6903 17.6917L20.3349 17.9357L20.3208 17.9866V17.9957L20.2678 18.1666L20.0905 18.2825L20.1496 18.3659L20.2267 18.3567L20.2387 18.3903L20.1025 18.4869L20.1356 18.5794L19.9984 18.6577L19.8903 18.5001L19.678 18.7035L19.3165 19.2729L19.4807 19.456L19.673 19.4794L19.9734 19.3716L20.1396 19.7061L20.2618 19.6126L20.2568 19.2912L20.5131 19.038L20.3128 18.6374L20.413 18.4218L20.8726 18.3089L20.9727 18.5875L21.0829 18.5306L21.3092 18.2255L21.4945 18.5631L21.7818 18.5855L21.874 18.797L21.6997 18.974L21.7478 19.036L22.0602 19.0248L22.1263 19.1651L22.0542 19.2109L21.6927 19.2709L21.6266 19.1692L21.6867 19.0553L21.6396 18.9607L21.5265 18.9841L21.5445 19.0858L21.3833 19.2038H21.3623L21.3673 19.2139L21.3092 19.2526L21.2091 19.1773H21.14L21.0148 19.2455L20.9787 19.3207L21.0328 19.4285L21.16 19.4072L21.2731 19.3665L21.2561 19.3929L21.2101 19.5515L21.142 19.517L21.0368 19.5404L20.9006 19.9166L20.9497 19.9268L20.6783 20.3335L20.5091 20.8979L20.5652 21.0789L20.3299 21.4979L20.2417 21.7704L20.442 22.1182L20.1416 22.1283L20.0415 21.9188L19.3625 22.2676L19.0942 22.6266L19.0851 22.9896L19.1362 23.2479L19.3465 23.4198L19.6399 23.3079L19.9293 22.7832L20.0455 22.9123L20.0365 23.2398L20.402 23.1269L20.7024 23.6353L21.2031 23.4787L21.3232 22.9845L21.7158 22.8747L21.928 22.9896L22.2565 22.7944L22.2164 22.6876L22.4508 22.6815L22.8263 22.9083L23.1928 22.7283L23.4441 22.8971L23.6103 23.1788L24.089 23.1299L24.5987 22.8727L24.8741 23.0455L25.1334 23.0049L25.1925 23.2276L25.1054 23.674L25.3838 24.4143L25.2486 24.7061L24.9161 24.8688L24.8981 25.118L25.1625 25.4413L25.0353 26.0921L25.0293 26.3667L24.7699 26.7094L24.5607 26.8609L24.6027 26.9626L24.783 26.927L24.814 27.0419L24.7429 27.2534L24.8821 27.3175L25.0573 27.2361L25.1124 27.3734L25.1344 27.529L25.1695 27.6418L25.53 27.7273L25.551 27.8564L25.2065 28.0293L24.7169 27.9001L24.2162 27.5646L24.0259 27.0856L23.6885 26.9178L23.5403 26.4094L23.4031 26.4358L22.9024 25.4373C22.9024 25.4373 22.4357 25.3488 22.4187 25.3569C22.4017 25.3651 22.2184 25.4067 22.2184 25.4067L22.0883 25.2329L21.3773 24.9034L21.3232 24.6817L21.17 24.3553L21.3703 23.9872L21.14 23.6435L20.6833 23.8336L20.1396 23.614L19.8612 23.6699L19.69 23.7228L19.6339 23.5672L19.4196 23.6384L19.4617 23.7218L18.8939 23.8519L18.5354 23.6435L18.5414 23.4482L17.9886 23.1432L17.7623 22.83L17.6322 22.8971L17.8424 23.2082L18.234 23.4401L18.277 23.5886L18.0768 23.6557L17.6492 23.3771L17.4189 22.9134H17.1185L16.9632 22.6002C17.0049 23.3027 17.1609 23.9934 17.4249 24.6441L17.4359 24.6736C17.4499 24.7102 17.4669 24.7458 17.483 24.7854L17.507 24.8342L17.545 24.9197L17.5831 25.0051L17.6161 25.0712L17.6332 25.1057C17.7093 25.2593 17.7874 25.4108 17.8745 25.5461L17.9526 25.6772C18.6298 26.7501 19.6058 27.5942 20.7566 28.1023C21.9075 28.6103 23.1811 28.7594 24.4156 28.5305C25.65 28.3016 26.7896 27.705 27.6893 26.8167C28.589 25.9284 29.2083 24.7884 29.4684 23.5418L29.3212 23.2459L28.9527 23.0598L28.7183 22.59L28.467 22.5086L28.3528 22.3225L28.3629 21.7978L27.6008 21.2863L27.4005 20.7708L27.018 20.9193L26.8117 20.8501L26.5684 20.9752L26.5043 21.1572L26.0717 21.3789L26.0777 21.4236L25.8374 21.5467L24.9682 21.1928L24.7289 20.6945L24.801 20.6142L24.7399 20.4047L24.6097 20.4718L24.4595 20.3L24.8651 19.5058L24.6968 19.1763L24.9221 18.8418L25.0513 18.7889L25.3077 18.6567L25.4569 18.4452L26.0747 18.0618L26.243 18.3994L26.8217 18.2642L26.9569 18.2866L27.0501 18.2388L26.9599 18.0578L27.0691 17.6663L26.6515 17.5015Z" fill="#0090A5"/>
<path fill-rule="evenodd" clip-rule="evenodd" d="M26.3741 19.701L26.3521 19.9756L26.4182 20.1088L26.5634 20.0335L26.7346 19.7102L26.6756 19.5648L26.5243 19.5729L26.3741 19.701Z" fill="#0090A5"/>
<path fill-rule="evenodd" clip-rule="evenodd" d="M26.8868 19.9786L27.0711 19.8841L27.3054 19.7315L27.3555 19.5119L27.1953 19.5292L27.0791 19.4773L26.8768 19.3553L26.6956 19.1194L26.5073 19.2719L26.4953 19.3939L26.5464 19.4966L26.6786 19.517L26.8698 19.5343L26.9319 19.6319L26.7967 19.7427L26.8868 19.9786Z" fill="#0090A5"/>
<path d="M23.8867 4.98679C23.8867 4.98679 23.1357 5.29185 22.8523 9.65427C22.8523 9.65427 21.2251 4.47632 22.658 2.9693C22.658 2.9693 23.4551 3.53265 23.8867 4.98679Z" fill="#0090A5"/>
<path d="M25.3758 4.51901C25.3758 4.51901 22.9164 13.0608 41.6401 11.0565C41.6401 11.0565 38.5749 12.8432 32.844 12.05C27.2774 11.2782 21.7638 8.08521 25.3758 4.51901Z" fill="#29275C"/>
<path d="M26.6756 1.78057C26.6756 1.78057 27.0871 1.6199 27.2594 1.30365L32.5326 1.44601L27.4005 2.62966C27.4005 2.62966 27.3004 2.3124 26.6936 1.98394L31.7064 1.53448L26.6756 1.78057Z" fill="#BD1F2D"/>
<path d="M21.7798 7.27985C21.7228 7.42933 21.6797 8.00793 21.4164 8.83364C21.175 9.58308 20.8305 10.2807 20.6153 11.2213C20.2728 12.7385 20.2067 14.7183 20.2407 15.602C20.5522 15.18 20.5652 14.8332 20.9127 13.8021C21.6777 11.5426 22.4738 9.74883 21.7798 7.27985Z" fill="#5B1F59"/>
<path d="M19.683 7.42526C17.3708 7.73033 15.2859 8.64552 13.3743 9.85662C13.1057 10.0362 12.8215 10.1904 12.5252 10.3173C14.7282 10.123 16.2302 9.50377 18.0377 8.41672C18.5604 8.10047 19.1663 7.81778 19.683 7.42526Z" fill="#29275C"/>
<path d="M13.2021 9.37765C10.1099 10.4352 7.6565 9.02683 5.1731 7.73438C7.73861 9.87389 10.3452 11.4185 13.2021 9.37765Z" fill="#29275C"/>
<path d="M9.86151 11.0057C9.12341 11.0501 8.38464 10.9307 7.69655 10.6559C5.96618 9.94407 5.44346 8.52044 4.11164 8.48993C3.52083 8.47773 3.04017 8.74822 2.75478 8.94549C3.39515 8.91514 4.0334 9.04065 4.61633 9.31157C5.48352 9.72747 5.53158 10.181 6.55198 10.6915C7.14618 10.9956 7.79691 11.1688 8.4616 11.1999C8.93555 11.2134 9.40847 11.1477 9.86151 11.0057Z" fill="#046737"/>
<path d="M7.94189 11.4409C7.30194 11.5176 6.65388 11.4857 6.02426 11.3463C4.17573 10.9325 3.05519 9.69187 2.64563 9.1875C3.20421 9.21965 3.75106 9.3634 4.25483 9.61052C4.99986 9.97863 5.22717 10.3823 5.91912 10.7993C6.53806 11.1631 7.22906 11.3823 7.94189 11.4409Z" fill="#046737"/>
<path d="M34.4983 14.4295C35.179 13.997 35.9316 13.6942 36.7193 13.5357C38.6069 13.1656 39.8606 13.6059 40.9601 12.7954C41.303 12.5353 41.5738 12.1896 41.7462 11.7917C41.5529 11.9173 41.3523 12.0307 41.1454 12.1314C40.8195 12.2866 40.4816 12.4142 40.135 12.5127C38.9333 12.8412 37.8549 12.4832 36.5871 12.9296C36.5871 12.9296 35.2363 13.4238 34.4943 14.4295H34.4983Z" fill="#0090A5"/>
<path d="M40.4044 13.5164C40.4044 13.5164 38.8582 15.3193 36.0384 14.4438C36.3214 14.1871 36.6534 13.9922 37.0137 13.8712C37.7938 13.6191 38.2875 13.8814 39.3469 13.7533C39.7062 13.7099 40.0604 13.6306 40.4044 13.5164Z" fill="#0090A5"/>
<path d="M9.22163 11.5914C9.22163 11.5914 10.8589 12.3236 12.1476 11.2477C11.1933 12.7476 10.215 12.651 9.22163 11.5914Z" fill="#0090A5"/>
<path d="M16.2002 10.2542C15.1785 11.5213 14.4475 13.0035 14.0603 14.5932C13.6597 16.2416 12.6263 16.2701 12.0395 15.7596C11.7211 15.483 11.6199 14.8749 11.6219 14.6746C11.6279 13.6211 12.3189 11.8405 16.2002 10.2542Z" fill="#BD1F2D"/>
<path d="M30.5609 12.6093C30.5609 12.6093 31.383 12.8015 33.1084 12.7008C34.0376 12.6459 34.1718 13.4228 33.9525 13.7655C33.8149 13.9399 33.6301 14.0696 33.4208 14.1387C32.852 14.2729 31.7856 14.2282 30.5609 12.6093Z" fill="#BD1F2D"/>
<path d="M29.9831 12.833C29.9761 14.0045 29.7828 14.6716 29.5825 15.0702C29.5365 15.1637 29.4043 15.421 29.4824 15.6966C29.5278 15.8453 29.6156 15.977 29.7346 16.075C29.8537 16.1731 29.9987 16.2332 30.1513 16.2477C30.5268 16.2681 30.7922 15.9335 30.8222 15.8959C31.4771 15.0732 30.0542 12.9378 29.9831 12.833Z" fill="#046737"/>
<path d="M23.1657 10.1475C23.1657 10.1475 22.8503 11.5314 23.7996 13.2815C24.3884 14.3665 24.1741 15.2075 23.5993 15.243C23.2919 15.2624 22.9384 14.9929 22.8413 14.8851C22.3326 14.3228 21.8349 13.0171 23.1657 10.1475Z" fill="#046737"/>
<path d="M24.0289 8.39536C24.0289 8.39536 24.2733 9.08378 25.1044 9.91457C25.6822 10.4911 26.6245 11.0952 27.6239 11.7572C29.6366 13.0893 28.9787 14.6787 27.9383 15.0641C27.4006 15.2634 23.8106 15.8379 24.0289 8.39536Z" fill="#F2A51A"/>
<path d="M19.0061 9.25159C19.0061 9.25159 17.9867 10.181 17.8415 14.3248C17.7974 15.602 17.5641 16.3809 17.2637 16.8477C16.5867 17.8951 15.0987 17.528 14.9094 16.2437C14.6731 14.637 15.1087 11.6596 19.0061 9.25159Z" fill="#F2A51A"/>
<path d="M0 9.63696C1.04826 9.78033 2.05097 10.1627 2.93302 10.7555C4.29388 11.6931 4.54823 12.649 5.49653 13.437C6.36973 14.1631 7.91685 14.817 10.8619 14.3146C7.50028 15.5806 5.79594 15.1485 4.85365 14.459C4.05255 13.8702 3.7932 13.0811 2.2591 11.5538C1.55725 10.8551 0.801845 10.2141 0 9.63696Z" fill="#0090A5"/>
<path d="M12.7214 11.0453C12.5282 11.567 12.0425 12.6358 10.956 13.3242C10.5426 13.601 10.0689 13.771 9.57611 13.8194C9.29573 13.8387 8.48261 13.8957 7.99194 13.3364C7.93687 13.2733 7.50227 12.7639 7.69153 12.2931C7.83773 11.9382 8.27533 11.7663 8.62381 11.7775C9.35181 11.7999 9.54006 12.6113 10.1429 12.7893C10.6185 12.9286 11.3926 12.6957 12.7214 11.0453Z" fill="#0090A5"/>
<path d="M14.3887 15.9569C14.0949 16.5347 13.9417 17.1756 13.9421 17.8259C13.9471 18.3903 14.0813 18.6526 14.1354 18.7482C14.3196 19.0746 14.7452 19.5261 15.2429 19.4458C15.2679 19.4458 15.6805 19.3675 15.8227 19.0319C15.9649 18.6964 15.7225 18.3689 15.7025 18.3394C15.4211 17.9642 14.9795 18.1106 14.6541 17.8818C14.3757 17.6846 14.1634 17.1975 14.3887 15.9569Z" fill="#0090A5"/>
<path d="M24.4835 0.877568C24.6909 0.858839 24.8991 0.903788 25.081 1.00659C25.2629 1.10939 25.4103 1.26531 25.5039 1.45414C25.9425 1.39109 26.4643 1.32805 27.0661 1.27313C27.0661 1.27313 22.2435 -1.98088 20.4781 1.91275C19.7771 3.45434 20.8556 5.33049 20.443 7.16901C19.8121 9.97865 18.6115 11.7673 18.5594 13.9913C18.4903 16.9168 18.3231 16.8812 18.3231 16.8812C18.3231 16.8812 19.2113 15.9874 19.725 12.712C19.9674 11.1521 20.5001 9.79459 20.9597 8.33943C21.6487 6.15924 21.2401 4.78035 21.7508 3.58145C22.1068 2.79231 22.7488 2.17307 23.5433 1.85276C23.5611 1.60355 23.6654 1.36883 23.8375 1.19029C24.0097 1.01176 24.2386 0.900957 24.4835 0.877568Z" fill="#5B1F59"/>
<path d="M24.5296 1.41141C24.6304 1.40216 24.7317 1.42348 24.8206 1.47269C24.9095 1.52191 24.982 1.59679 25.029 1.68787C25.076 1.77895 25.0953 1.88213 25.0845 1.98436C25.0737 2.08659 25.0332 2.18326 24.9683 2.26215C24.9034 2.34104 24.8169 2.3986 24.7197 2.42754C24.6226 2.45648 24.5192 2.45551 24.4226 2.42474C24.3259 2.39397 24.2405 2.33479 24.177 2.2547C24.1136 2.1746 24.0749 2.07718 24.066 1.97476L24.5757 1.929L24.5296 1.41141Z" fill="#0090A5"/>
<path d="M25.6101 2.03174C25.5876 2.25895 25.4933 2.47265 25.3412 2.64083C25.1891 2.80901 24.9874 2.92263 24.7664 2.96465C24.5453 3.00668 24.3168 2.97486 24.1151 2.87395C23.9134 2.77305 23.7493 2.60849 23.6474 2.40493C23.1077 2.58899 22.9004 2.76186 22.9004 2.76186C23.8016 3.52859 24.05 4.86985 24.05 4.86985C25.1465 3.53977 26.98 2.87066 26.98 2.87066C26.5864 2.19241 25.7523 2.05106 25.6101 2.03174Z" fill="#0090A5"/>
<path d="M24.2692 1.78563C24.3411 1.78563 24.3994 1.72644 24.3994 1.65343C24.3994 1.58043 24.3411 1.52124 24.2692 1.52124C24.1974 1.52124 24.1391 1.58043 24.1391 1.65343C24.1391 1.72644 24.1974 1.78563 24.2692 1.78563Z" fill="#F8FAFC"/>
<path d="M13.4344 16.8863C13.4344 16.8863 11.2314 17.1253 10.6656 15.0366C10.5855 17.5534 11.661 17.8808 13.4344 16.8863Z" fill="#0090A5"/>
<path d="M23.8236 29.9797C22.5057 30.0751 21.186 29.8213 19.9937 29.2433C18.8013 28.6652 17.7772 27.7827 17.0216 26.682C16.266 25.5814 15.8048 24.3004 15.6831 22.9643C15.5614 21.6283 15.7834 20.2831 16.3274 19.0604C16.3562 19.0143 16.4004 18.9804 16.4519 18.9649C16.5034 18.9494 16.5587 18.9534 16.6075 18.9761C16.6564 18.9988 16.6955 19.0387 16.7176 19.0884C16.7398 19.1381 16.7434 19.1943 16.7279 19.2465C16.0044 20.8674 15.8893 22.7009 16.4044 24.402C16.9195 26.103 18.0292 27.5541 19.5246 28.4821C21.02 29.41 22.7979 29.7508 24.5235 29.4402C26.2491 29.1296 27.8033 28.1891 28.8936 26.7958C28.9111 26.7709 28.9334 26.7498 28.9592 26.7339C28.985 26.718 29.0137 26.7075 29.0436 26.7033C29.0735 26.699 29.104 26.7009 29.1331 26.709C29.1622 26.7171 29.1894 26.7311 29.213 26.7501C29.2366 26.7692 29.2562 26.793 29.2705 26.82C29.2848 26.847 29.2935 26.8766 29.2961 26.9072C29.2987 26.9377 29.2952 26.9685 29.2857 26.9976C29.2763 27.0267 29.2611 27.0535 29.2411 27.0765C28.5839 27.9135 27.7635 28.6035 26.8312 29.1031C25.8989 29.6027 24.8749 29.9012 23.8236 29.9797Z" fill="#0090A5"/>
<path d="M29.1119 21.0545C29.1119 21.0545 30.4828 20.6335 30.7141 19.2983C30.9054 20.7149 30.2595 21.1745 29.1119 21.0545Z" fill="#0090A5"/>
<path d="M27.5488 16.0352C28.0084 16.1206 28.9637 16.3718 29.6967 17.1924C29.9872 17.5026 30.1993 17.8798 30.3145 18.2916C30.3726 18.5286 30.5429 19.2068 30.1553 19.7153C30.1123 19.7712 29.7548 20.2186 29.3392 20.122C29.0238 20.0519 28.8165 19.7051 28.7724 19.4102C28.6803 18.7879 29.3222 18.5052 29.3733 17.9642C29.4213 17.5422 29.1119 16.9158 27.5488 16.0352Z" fill="#0090A5"/>
<path d="M31.5452 21.7683C31.6875 21.5898 31.8901 21.4716 32.1136 21.4366C32.3371 21.4016 32.5653 21.4525 32.7539 21.5792H32.7609C32.9898 21.7197 33.2536 21.7903 33.5209 21.7826C33.7872 21.7982 34.0489 21.7065 34.2489 21.5273C34.339 21.4353 34.4089 21.3251 34.4543 21.2039C34.4996 21.0827 34.5194 20.9531 34.5123 20.8237C34.5152 20.6398 34.4624 20.4595 34.3611 20.3071C34.2402 20.1394 34.0825 20.0026 33.9005 19.9074L33.6772 19.7814C33.107 19.4668 32.7242 19.1987 32.5286 18.977C32.3856 18.8125 32.2751 18.6216 32.2031 18.4147C32.1272 18.1955 32.0893 17.9647 32.091 17.7323C32.086 17.4481 32.141 17.166 32.2524 16.9052C32.3638 16.6443 32.529 16.4108 32.7369 16.2202C33.1675 15.8135 33.7102 15.6101 34.3651 15.6101C34.7287 15.6029 35.0892 15.6794 35.4195 15.8338C35.732 15.988 36.0013 16.2195 36.2026 16.507L35.9873 16.7897C35.8746 16.9375 35.7116 17.0372 35.5303 17.0693C35.349 17.1015 35.1624 17.0638 35.007 16.9636C34.8186 16.8463 34.6011 16.7863 34.3801 16.7907C34.1365 16.7813 33.8983 16.8655 33.7132 17.0266C33.6278 17.1009 33.5599 17.1935 33.5143 17.2979C33.4687 17.4022 33.4467 17.5155 33.4499 17.6296C33.4499 17.9476 33.7379 18.272 34.314 18.6028L34.5654 18.7523C35.0868 19.0641 35.4412 19.3692 35.6288 19.6675C35.8164 19.9658 35.9099 20.3515 35.9092 20.8247C35.9092 21.4836 35.6899 22.0158 35.2513 22.4212C34.8127 22.8266 34.2313 23.0299 33.5069 23.0313C33.0992 23.0388 32.6956 22.9479 32.3293 22.7659C31.9642 22.571 31.6488 22.2925 31.4081 21.9524L31.5452 21.7683Z" fill="#1E293B"/>
<path d="M35.4806 22.8371L39.0796 15.7789H40.6657L42.337 22.8371H40.7939L40.4995 21.3179H37.8549L37.1048 22.8371H35.4806ZM40.2291 20.1617L39.8967 18.493C39.8646 18.3235 39.8363 18.1171 39.8116 17.8737C39.7875 17.65 39.7655 17.3866 39.7455 17.0836L39.5172 17.7191C39.438 17.9398 39.3539 18.1442 39.2648 18.3293L38.4196 20.1597L40.2291 20.1617Z" fill="#1E293B"/>
<path d="M42.4842 22.8371L43.4005 15.7789H44.9146L47.0655 19.4183C47.2972 19.817 47.4617 20.1176 47.5592 20.3203L47.7995 20.8166C47.8115 20.5115 47.8265 20.2451 47.8446 20.0092C47.8626 19.7543 47.8813 19.5526 47.9006 19.4041L48.3803 15.7789H49.7482L48.8299 22.8371H47.417L45.0247 18.7289C44.8765 18.4787 44.7563 18.2581 44.6642 18.0689C44.5775 17.8915 44.5 17.7096 44.4319 17.5239V17.7507C44.4319 17.9917 44.4249 18.2245 44.4129 18.4493C44.4008 18.674 44.3808 18.8865 44.3558 19.0858L43.8381 22.8371H42.4842Z" fill="#1E293B"/>
<path d="M49.3436 21.7683C49.486 21.5898 49.6888 21.4715 49.9125 21.4365C50.1361 21.4015 50.3646 21.4524 50.5533 21.5792H50.5593C50.7881 21.7197 51.052 21.7903 51.3193 21.7826C51.5859 21.7982 51.8478 21.7065 52.0483 21.5273C52.1382 21.4352 52.208 21.325 52.2534 21.2038C52.2988 21.0826 52.3186 20.9531 52.3117 20.8237C52.3142 20.6397 52.2611 20.4594 52.1595 20.3071C52.0388 20.1392 51.881 20.0023 51.6989 19.9075C51.6488 19.878 51.5737 19.8363 51.4755 19.7814C50.9061 19.4668 50.5232 19.1987 50.327 18.977C50.1843 18.8122 50.0739 18.6214 50.0015 18.4147C49.9259 18.1955 49.8883 17.9646 49.8904 17.7324C49.8848 17.4484 49.9393 17.1665 50.05 16.9057C50.1607 16.6449 50.3252 16.4111 50.5323 16.2203C50.9622 15.8135 51.5049 15.6101 52.1605 15.6101C52.5238 15.6029 52.884 15.6794 53.2139 15.8338C53.5248 15.9874 53.7931 16.217 53.995 16.5019C53.9957 16.5033 53.9961 16.5049 53.9961 16.5065C53.9961 16.5081 53.9957 16.5097 53.995 16.5111L53.7877 16.7836C53.6741 16.9332 53.5094 17.0342 53.3262 17.0668C53.1429 17.0993 52.9543 17.0611 52.7974 16.9595C52.609 16.8422 52.3914 16.7822 52.1705 16.7867C51.9269 16.7775 51.6889 16.8617 51.5036 17.0226C51.4184 17.0969 51.3505 17.1896 51.305 17.2939C51.2594 17.3982 51.2373 17.5115 51.2402 17.6256C51.2402 17.9435 51.5283 18.2679 52.1044 18.5987C52.2156 18.6638 52.2987 18.7136 52.3558 18.7482C52.8785 19.0601 53.233 19.3651 53.4192 19.6634C53.6055 19.9617 53.6989 20.3474 53.6996 20.8206C53.6996 21.4796 53.4803 22.0117 53.0417 22.4171C52.6031 22.8225 52.0216 23.0259 51.2973 23.0272C50.8896 23.0345 50.4861 22.9436 50.1197 22.7618C49.7566 22.5692 49.4426 22.2935 49.2024 21.9565C49.2014 21.9552 49.2008 21.9536 49.2008 21.9519C49.2008 21.9502 49.2014 21.9486 49.2024 21.9473L49.3436 21.7683Z" fill="#1E293B"/>
<path d="M31.6844 26.2162L31.8607 24.8719H31.5342L31.5853 24.4763H31.9067L31.9818 23.8987H32.4825L32.4044 24.4763H32.7359L32.6868 24.8719H32.3533L32.1791 26.2162H31.6844Z" fill="#1E293B"/>
<path d="M33.7803 24.4183C33.8977 24.4123 34.015 24.43 34.1256 24.4705C34.2361 24.511 34.3376 24.5735 34.4242 24.6543C34.5054 24.7369 34.5688 24.8358 34.6101 24.9447C34.6515 25.0536 34.67 25.1701 34.6645 25.2868C34.668 25.4188 34.6447 25.5502 34.5959 25.6727C34.5472 25.7952 34.474 25.9061 34.3811 25.9986C34.285 26.0928 34.1712 26.1663 34.0464 26.2147C33.9217 26.2631 33.7886 26.2854 33.6551 26.2802C33.5402 26.2861 33.4253 26.2683 33.3173 26.2282C33.2093 26.188 33.1103 26.1262 33.0263 26.0464C32.9466 25.9649 32.8845 25.8675 32.8438 25.7604C32.8031 25.6533 32.7848 25.5387 32.7899 25.424C32.7843 25.2902 32.806 25.1566 32.8537 25.0318C32.9015 24.9069 32.9741 24.7934 33.0672 24.6984C33.1602 24.6035 33.2716 24.5291 33.3943 24.48C33.5171 24.431 33.6485 24.4082 33.7803 24.4133V24.4183ZM33.7803 24.8759C33.7139 24.8731 33.6476 24.8852 33.5863 24.9114C33.525 24.9376 33.4702 24.9772 33.4258 25.0274C33.3324 25.1376 33.2841 25.2799 33.2906 25.425C33.2847 25.5329 33.3207 25.6387 33.3908 25.7199C33.4263 25.7567 33.4692 25.7853 33.5165 25.8039C33.5638 25.8225 33.6145 25.8306 33.6651 25.8277C33.7311 25.8299 33.7967 25.8178 33.8577 25.7922C33.9186 25.7666 33.9735 25.7281 34.0186 25.6793C34.1117 25.5725 34.1605 25.4333 34.1548 25.2908C34.1619 25.1798 34.126 25.0703 34.0547 24.9858C34.0193 24.9498 33.9771 24.9215 33.9306 24.9026C33.8841 24.8837 33.8343 24.8746 33.7843 24.8759H33.7803Z" fill="#1E293B"/>
<path d="M35.6118 24.4763L35.5197 25.2034C35.5197 25.2237 35.5127 25.2542 35.5067 25.2939C35.4949 25.3686 35.4875 25.444 35.4846 25.5196C35.4817 25.5628 35.4871 25.6061 35.5007 25.6471C35.5143 25.6881 35.5357 25.726 35.5637 25.7586C35.594 25.7878 35.6299 25.8104 35.6692 25.8247C35.7085 25.8391 35.7504 25.8449 35.792 25.842C35.849 25.8462 35.9061 25.8363 35.9585 25.8131C36.0108 25.7899 36.0568 25.7541 36.0925 25.7087C36.1585 25.6193 36.2086 25.4403 36.2447 25.1739L36.3338 24.4763H36.8285L36.7283 25.2359C36.7106 25.4148 36.6743 25.5914 36.6202 25.7626C36.5836 25.8671 36.5256 25.9624 36.4499 26.0423C36.3697 26.1242 36.2721 26.1864 36.1646 26.2243C36.0411 26.2668 35.9114 26.2874 35.781 26.2853C35.5737 26.2966 35.3689 26.2348 35.2012 26.1104C35.1316 26.055 35.0758 25.9837 35.0386 25.9022C35.0013 25.8207 34.9836 25.7314 34.9869 25.6416C34.9869 25.5959 34.9869 25.5308 34.998 25.4464C35.009 25.362 35.019 25.2512 35.037 25.1118L35.1191 24.4763H35.6118Z" fill="#1E293B"/>
<path d="M37.0708 26.2162L37.2961 24.4763H37.7908L37.7467 24.7814C37.7992 24.6741 37.8761 24.581 37.971 24.5098C38.0576 24.4493 38.1604 24.4174 38.2654 24.4183C38.2928 24.4166 38.3202 24.4166 38.3476 24.4183C38.3719 24.4211 38.3959 24.4255 38.4197 24.4315L38.3195 24.9339C38.2868 24.9224 38.2533 24.9133 38.2194 24.9064C38.1863 24.9011 38.1528 24.8984 38.1192 24.8983C38.0598 24.8961 38.0005 24.9077 37.9462 24.9324C37.8919 24.9571 37.8438 24.9941 37.8058 25.0407C37.7174 25.1672 37.6651 25.316 37.6546 25.4708L37.5625 26.2121L37.0708 26.2162Z" fill="#1E293B"/>
<path d="M41.2195 26.2162L41.0593 25.9772C40.9697 26.0755 40.8623 26.1553 40.7428 26.2121C40.6271 26.2625 40.5022 26.2874 40.3763 26.2853C40.1703 26.2955 39.9687 26.2224 39.8156 26.0819C39.7446 26.0133 39.6888 25.9301 39.6518 25.8379C39.6149 25.7457 39.5976 25.6465 39.6013 25.5471C39.6001 25.3806 39.6529 25.2184 39.7515 25.0854C39.8784 24.9258 40.038 24.796 40.2191 24.7051C40.1589 24.6048 40.1077 24.4993 40.0659 24.3899C40.0359 24.3109 40.0196 24.2273 40.0178 24.1428C40.0163 24.0637 40.032 23.9854 40.0638 23.9133C40.0957 23.8412 40.1429 23.7771 40.2021 23.7258C40.3332 23.6132 40.5011 23.5544 40.6727 23.5611C40.8469 23.5538 41.0181 23.6089 41.1564 23.7167C41.2162 23.763 41.2645 23.8229 41.2974 23.8916C41.3303 23.9603 41.3468 24.0359 41.3457 24.1122C41.3451 24.2408 41.302 24.3654 41.2235 24.4661C41.1045 24.6092 40.9635 24.7318 40.8059 24.8291L41.1444 25.3325C41.2375 25.2389 41.3096 25.1647 41.3597 25.1088C41.4098 25.0529 41.4598 24.999 41.4989 24.9441L41.7793 25.2705C41.6858 25.3762 41.6107 25.4586 41.5539 25.5176C41.4979 25.5776 41.4468 25.6304 41.3997 25.6752L41.7893 26.2192L41.2195 26.2162ZM40.8189 25.6315L40.4364 25.0671C40.3411 25.1234 40.2558 25.1956 40.1841 25.2806C40.1341 25.3438 40.1069 25.4223 40.107 25.5033C40.1053 25.5459 40.1119 25.5885 40.1266 25.6284C40.1412 25.6684 40.1634 25.705 40.1921 25.7362C40.2203 25.7659 40.2542 25.7893 40.2918 25.8049C40.3294 25.8205 40.3698 25.8279 40.4104 25.8267C40.4798 25.826 40.5482 25.8096 40.6107 25.7789C40.6867 25.7403 40.7569 25.6906 40.8189 25.6315ZM40.5936 24.4804C40.6853 24.4366 40.7681 24.3759 40.838 24.3014C40.8879 24.2488 40.9165 24.1791 40.9181 24.1061C40.9193 24.0768 40.9145 24.0475 40.9042 24.02C40.8939 23.9926 40.8782 23.9676 40.858 23.9465C40.8381 23.9256 40.8141 23.9092 40.7875 23.8985C40.7609 23.8878 40.7324 23.883 40.7038 23.8845C40.6725 23.8835 40.6414 23.8893 40.6125 23.9016C40.5837 23.9139 40.5578 23.9323 40.5366 23.9556C40.4922 24.0061 40.4689 24.0721 40.4715 24.1397C40.4729 24.1864 40.4824 24.2326 40.4995 24.276C40.5253 24.3461 40.5557 24.4144 40.5906 24.4804H40.5936Z" fill="#1E293B"/>
<path d="M43.2333 26.2162L43.4095 24.8719H43.083L43.1341 24.4763H43.4586L43.5337 23.8987H44.0344L43.9562 24.4763H44.2877L44.2386 24.8719H43.9052L43.7309 26.2162H43.2333Z" fill="#1E293B"/>
<path d="M44.3458 26.2162L44.5711 24.4763H45.0658L45.0217 24.7814C45.0742 24.6741 45.1511 24.581 45.246 24.5099C45.3325 24.4493 45.4353 24.4174 45.5404 24.4183C45.5678 24.4167 45.5952 24.4167 45.6225 24.4183C45.6468 24.4211 45.6709 24.4255 45.6946 24.4316L45.5945 24.9339C45.5618 24.9224 45.5283 24.9133 45.4943 24.9064C45.4612 24.9011 45.4277 24.8984 45.3942 24.8983C45.3347 24.8959 45.2754 24.9075 45.2211 24.9322C45.1667 24.9569 45.1187 24.994 45.0808 25.0407C44.9924 25.1672 44.94 25.316 44.9296 25.4708L44.8374 26.2121L44.3458 26.2162Z" fill="#1E293B"/>
<path d="M47.439 26.2162H46.9463L46.9744 26.023C46.92 26.1071 46.8447 26.1752 46.7561 26.2202C46.6622 26.265 46.5594 26.2873 46.4557 26.2853C46.36 26.2907 46.2643 26.274 46.1758 26.2365C46.0874 26.199 46.0085 26.1416 45.945 26.0687C45.8138 25.8943 45.7488 25.6777 45.7617 25.4586C45.751 25.1894 45.8336 24.925 45.995 24.7112C46.0645 24.6189 46.1543 24.5444 46.2573 24.4937C46.3602 24.443 46.4734 24.4176 46.5878 24.4194C46.7002 24.4166 46.8113 24.4425 46.9113 24.4946C47.0077 24.5475 47.0885 24.6254 47.1456 24.7203L47.1746 24.4773H47.6673L47.439 26.2162ZM47.0935 25.2501C47.1003 25.1345 47.0626 25.0208 46.9884 24.9329C46.9509 24.894 46.9057 24.8638 46.8558 24.8442C46.8059 24.8245 46.7524 24.8159 46.699 24.819C46.6346 24.8165 46.5706 24.8298 46.5124 24.8578C46.4542 24.8857 46.4035 24.9275 46.3645 24.9797C46.2759 25.1082 46.2325 25.2633 46.2414 25.42C46.2386 25.4757 46.247 25.5315 46.2659 25.5839C46.2848 25.6363 46.3139 25.6843 46.3515 25.725C46.3912 25.764 46.4383 25.7942 46.49 25.8138C46.5417 25.8334 46.5968 25.842 46.6519 25.8389C46.7141 25.8404 46.7757 25.8264 46.8314 25.7982C46.887 25.7701 46.9351 25.7285 46.9714 25.6772C47.0577 25.5526 47.1007 25.4023 47.0935 25.2501Z" fill="#1E293B"/>
<path d="M48.2742 26.2162L47.8406 24.4763H48.3733L48.5505 25.3915C48.5605 25.4586 48.5686 25.5196 48.5736 25.5715C48.5786 25.6233 48.5816 25.6732 48.5816 25.722V25.7626C48.6076 25.6813 48.6316 25.6081 48.6547 25.544C48.6777 25.4799 48.7007 25.4261 48.7218 25.3813L49.1614 24.4763H49.7312L48.8059 26.2162H48.2742Z" fill="#1E293B"/>
<path d="M50.2519 25.4576V25.4962C50.2492 25.5476 50.2575 25.599 50.2764 25.6468C50.2952 25.6945 50.3241 25.7375 50.361 25.7728C50.4444 25.845 50.5521 25.8814 50.6614 25.8745C50.7428 25.876 50.8232 25.856 50.8947 25.8165C50.9734 25.7696 51.0416 25.7066 51.095 25.6315L51.4265 25.9111C51.3459 26.0329 51.234 26.1299 51.103 26.1918C50.9552 26.2592 50.7943 26.2918 50.6324 26.2874C50.5163 26.2931 50.4003 26.2752 50.2912 26.2349C50.182 26.1946 50.0818 26.1326 49.9965 26.0525C49.9165 25.9706 49.8541 25.8727 49.8133 25.765C49.7724 25.6574 49.754 25.5423 49.7592 25.4271C49.7546 25.2942 49.7766 25.1617 49.8237 25.0376C49.8709 24.9135 49.9423 24.8004 50.0336 24.7051C50.1232 24.6115 50.231 24.5379 50.3501 24.4889C50.4692 24.4399 50.597 24.4165 50.7255 24.4204C50.8364 24.4149 50.9472 24.4332 51.0507 24.4741C51.1542 24.5149 51.2481 24.5773 51.3263 24.6573C51.4818 24.8384 51.561 25.0744 51.5466 25.3142C51.5466 25.3427 51.5466 25.3874 51.5396 25.4505V25.4596L50.2519 25.4576ZM50.2779 25.1627H51.085C51.0899 25.0618 51.0566 24.9628 50.9919 24.8861C50.9587 24.8517 50.9186 24.8249 50.8744 24.8073C50.8303 24.7898 50.7829 24.782 50.7355 24.7844C50.6305 24.7802 50.5273 24.8137 50.4441 24.879C50.3606 24.9534 50.3025 25.0527 50.2779 25.1627Z" fill="#1E293B"/>
<path d="M51.822 26.2162L52.1765 23.4706H52.6702L52.3157 26.2162H51.822Z" fill="#1E293B"/>
<path d="M30.4878 28.3364L30.5609 27.8656L30.3045 27.3093H30.5379L30.638 27.5676C30.6465 27.5896 30.6539 27.612 30.66 27.6347C30.666 27.6571 30.672 27.6815 30.677 27.7069C30.6969 27.6635 30.72 27.6217 30.7461 27.5819L30.7572 27.5635L30.9174 27.3093H31.1657L30.7742 27.8635L30.7001 28.3364H30.4878Z" fill="#1E293B"/>
<path d="M31.6153 28.3638C31.5488 28.3672 31.4823 28.3571 31.4198 28.334C31.3572 28.311 31.2997 28.2755 31.2508 28.2296C31.2047 28.1827 31.1688 28.1265 31.1451 28.0647C31.1215 28.003 31.1108 27.9369 31.1136 27.8707C31.1136 27.7976 31.1268 27.7252 31.1527 27.6571C31.1777 27.589 31.2151 27.5262 31.2628 27.472C31.3152 27.4117 31.3802 27.3641 31.4531 27.3327C31.5286 27.3006 31.6096 27.2844 31.6914 27.2849C31.8255 27.2786 31.9566 27.3265 32.0559 27.4181C32.1016 27.4638 32.1374 27.5187 32.1608 27.5794C32.1843 27.64 32.195 27.7049 32.1921 27.77C32.1928 27.8433 32.1813 27.9162 32.1581 27.9856C32.1326 28.058 32.0928 28.1244 32.0411 28.1807C31.9895 28.237 31.927 28.282 31.8577 28.313C31.7812 28.3468 31.6987 28.3641 31.6153 28.3638ZM31.6794 27.472C31.6323 27.4708 31.5855 27.4803 31.5424 27.4996C31.4993 27.5189 31.4609 27.5477 31.4301 27.5839C31.362 27.6611 31.3261 27.762 31.3299 27.8656C31.328 27.9071 31.3342 27.9486 31.3481 27.9877C31.362 28.0268 31.3834 28.0627 31.411 28.0933C31.4392 28.1219 31.4728 28.1441 31.5099 28.1586C31.547 28.1732 31.5866 28.1797 31.6263 28.1777C31.6736 28.1784 31.7204 28.1685 31.7634 28.1489C31.8065 28.1292 31.8448 28.1002 31.8757 28.0639C31.9431 27.9863 31.9789 27.8856 31.9758 27.7822C31.9779 27.7409 31.9718 27.6996 31.9581 27.6607C31.9443 27.6217 31.9231 27.586 31.8957 27.5554C31.8673 27.5271 31.8334 27.505 31.7962 27.4906C31.759 27.4763 31.7192 27.47 31.6794 27.472Z" fill="#1E293B"/>
<path d="M32.6377 27.3093L32.5616 27.89C32.5616 27.9052 32.5616 27.9205 32.5616 27.9378C32.5616 27.955 32.5616 27.9744 32.5616 27.9947C32.5583 28.0467 32.5748 28.0981 32.6077 28.1381C32.6255 28.1552 32.6466 28.1684 32.6697 28.1768C32.6928 28.1852 32.7174 28.1886 32.7419 28.1869C32.7798 28.1878 32.8173 28.179 32.851 28.1615C32.883 28.1432 32.9099 28.117 32.9291 28.0852C32.9642 28.0058 32.9852 27.9208 32.9912 27.834C32.9912 27.8269 32.9912 27.8229 32.9912 27.8198L33.0593 27.3114H33.2686L33.1945 27.8889C33.1866 27.9603 33.1722 28.0308 33.1514 28.0994C33.1368 28.1433 33.1148 28.1843 33.0864 28.2205C33.0477 28.2703 32.9965 28.3085 32.9381 28.3313C32.8704 28.3572 32.7983 28.3697 32.7259 28.3679C32.6231 28.3763 32.5211 28.3447 32.4405 28.2794C32.4071 28.2447 32.3814 28.2032 32.3652 28.1576C32.349 28.112 32.3425 28.0634 32.3463 28.015C32.3463 27.9988 32.3483 27.9703 32.3523 27.9296C32.3523 27.8889 32.3614 27.8401 32.3694 27.7812L32.4305 27.3114L32.6377 27.3093Z" fill="#1E293B"/>
<path d="M33.561 28.3364H33.3487L33.4819 27.3093H33.6922C33.7559 27.3074 33.8197 27.3122 33.8824 27.3236C33.9186 27.3325 33.9527 27.3488 33.9826 27.3714C34.014 27.3947 34.0395 27.4254 34.0567 27.4608C34.0741 27.4973 34.083 27.5373 34.0827 27.5778C34.0854 27.6488 34.0622 27.7183 34.0176 27.773C33.9673 27.8267 33.9013 27.8624 33.8294 27.8747L34.0587 28.3343H33.8294L33.6221 27.8635L33.561 28.3364ZM33.6361 27.7537H33.6671C33.7236 27.7592 33.7805 27.7476 33.8304 27.7201C33.846 27.7059 33.8581 27.688 33.8656 27.668C33.8731 27.648 33.8758 27.6265 33.8734 27.6052C33.8759 27.5866 33.8739 27.5676 33.8677 27.5499C33.8614 27.5322 33.851 27.5163 33.8374 27.5036C33.7935 27.4808 33.7442 27.4713 33.6952 27.4761H33.6712L33.6361 27.7537Z" fill="#1E293B"/>
<path d="M34.8107 28.3364H34.5984L34.7316 27.3093H34.9269C34.994 27.307 35.0611 27.3121 35.1271 27.3246C35.1652 27.3347 35.2009 27.3523 35.2323 27.3764C35.2655 27.4032 35.2914 27.4382 35.3074 27.4781C35.325 27.5191 35.3339 27.5635 35.3334 27.6083C35.3342 27.661 35.324 27.7134 35.3034 27.7618C35.2837 27.8069 35.2531 27.8461 35.2143 27.8757C35.1805 27.902 35.1416 27.9207 35.1001 27.9306C35.0369 27.9439 34.9724 27.9497 34.9078 27.9479H34.8598L34.8107 28.3364ZM34.8848 27.7689H34.9108C34.9675 27.7748 35.0245 27.7627 35.0741 27.7344C35.0898 27.719 35.1018 27.7002 35.1093 27.6794C35.1167 27.6586 35.1194 27.6364 35.1171 27.6144C35.1193 27.5957 35.1172 27.5769 35.1109 27.5592C35.1046 27.5416 35.0944 27.5256 35.0811 27.5127C35.0376 27.4889 34.988 27.4789 34.9389 27.4842H34.9149L34.8848 27.7689Z" fill="#1E293B"/>
<path d="M35.3985 28.3364L35.5317 27.3093H35.744L35.6328 28.1544H35.9843L35.9603 28.3364H35.3985Z" fill="#1E293B"/>
<path d="M36.0885 28.3364L36.2216 27.3093H36.8225L36.8004 27.4903H36.4129L36.3839 27.7212H36.7744L36.7514 27.8981H36.3598L36.3268 28.1554H36.7133L36.6893 28.3364H36.0885Z" fill="#1E293B"/>
<path d="M36.8024 28.3364L37.3262 27.3093H37.5575L37.8008 28.3364H37.5755L37.5334 28.1157H37.1479L37.0388 28.3364H36.8024ZM37.4934 27.9469L37.4453 27.7049C37.4397 27.675 37.4357 27.6448 37.4333 27.6144C37.4333 27.5788 37.4263 27.5371 37.4223 27.4873C37.4123 27.5249 37.4013 27.5595 37.3902 27.589C37.3792 27.6185 37.3662 27.651 37.3532 27.6785L37.23 27.9439L37.4934 27.9469Z" fill="#1E293B"/>
<path d="M37.975 28.0608C37.9942 28.0985 38.0225 28.1307 38.0572 28.1544C38.0905 28.1753 38.1291 28.186 38.1683 28.1849C38.2072 28.1867 38.2452 28.1733 38.2745 28.1472C38.2873 28.1338 38.2974 28.1179 38.3039 28.1004C38.3105 28.0829 38.3134 28.0642 38.3125 28.0455C38.3124 28.0188 38.3048 27.9927 38.2905 27.9703C38.2726 27.9462 38.2497 27.9264 38.2234 27.9123L38.1903 27.894C38.1292 27.8637 38.0729 27.8243 38.0231 27.7771C38.0027 27.7531 37.9867 27.7255 37.976 27.6957C37.9572 27.6402 37.9546 27.5804 37.9685 27.5234C37.9823 27.4664 38.0121 27.4147 38.0542 27.3744C38.1188 27.3144 38.204 27.2827 38.2915 27.2859C38.3443 27.2852 38.3966 27.2963 38.4447 27.3185C38.4901 27.3428 38.5292 27.3776 38.5588 27.4202L38.4497 27.5625C38.4344 27.5318 38.4116 27.5056 38.3836 27.4863C38.3562 27.4693 38.3246 27.4605 38.2925 27.4608C38.256 27.459 38.2202 27.4713 38.1923 27.4954C38.1799 27.5061 38.17 27.5196 38.1635 27.5347C38.1569 27.5499 38.1537 27.5663 38.1543 27.5829C38.1543 27.6296 38.1954 27.6764 38.2795 27.7252L38.3165 27.7466C38.3773 27.7784 38.43 27.824 38.4707 27.8798C38.4999 27.931 38.5141 27.9895 38.5118 28.0486C38.5129 28.0923 38.5045 28.1358 38.4872 28.1759C38.4699 28.2159 38.4441 28.2516 38.4116 28.2804C38.3415 28.3419 38.2508 28.3736 38.1583 28.3689C38.099 28.3699 38.0404 28.3566 37.9871 28.3303C37.9339 28.3021 37.8879 28.2617 37.8529 28.2123L37.975 28.0608Z" fill="#1E293B"/>
<path d="M38.9734 27.3093L38.8973 27.89C38.8973 27.9052 38.8973 27.9205 38.8923 27.9378C38.8873 27.955 38.8923 27.9744 38.8923 27.9947C38.889 28.0467 38.9055 28.0981 38.9384 28.1381C38.956 28.1551 38.977 28.1683 38.9999 28.1767C39.0228 28.1851 39.0472 28.1886 39.0715 28.1869C39.1095 28.188 39.147 28.1793 39.1807 28.1615C39.2131 28.1438 39.2402 28.1174 39.2588 28.0852C39.2948 28.0061 39.3162 27.921 39.3219 27.834C39.3219 27.8269 39.3219 27.8229 39.3219 27.8198L39.39 27.3114H39.5993L39.5242 27.8889C39.517 27.9603 39.5029 28.0308 39.4821 28.0994C39.467 28.1428 39.445 28.1833 39.417 28.2194C39.378 28.2693 39.3264 28.3076 39.2678 28.3303C39.2004 28.3563 39.1286 28.3687 39.0565 28.3669C38.9538 28.3753 38.8517 28.3437 38.7711 28.2784C38.7378 28.2437 38.7121 28.2022 38.6959 28.1566C38.6796 28.111 38.6732 28.0624 38.677 28.014C38.677 27.9978 38.679 27.9693 38.683 27.9286C38.683 27.8879 38.692 27.8391 38.7 27.7801L38.7601 27.3103L38.9734 27.3093Z" fill="#1E293B"/>
<path d="M39.8967 28.3364H39.6834L39.8176 27.3093H40.0279C40.0916 27.3074 40.1553 27.3122 40.2181 27.3236C40.2543 27.3325 40.2884 27.3488 40.3183 27.3714C40.3497 27.3947 40.3751 27.4254 40.3924 27.4608C40.4098 27.4973 40.4187 27.5373 40.4184 27.5778C40.4212 27.649 40.3976 27.7186 40.3523 27.773C40.3026 27.8269 40.2368 27.8626 40.165 27.8747L40.3944 28.3343H40.162L39.9548 27.8635L39.8967 28.3364ZM39.9708 27.7537H40.0028C40.0593 27.7592 40.1161 27.7476 40.166 27.7201C40.1815 27.7057 40.1935 27.6878 40.201 27.6679C40.2084 27.6479 40.2112 27.6265 40.2091 27.6052C40.2116 27.5866 40.2096 27.5676 40.2033 27.5499C40.1971 27.5322 40.1867 27.5163 40.1731 27.5036C40.1292 27.4809 40.0799 27.4714 40.0309 27.4761H40.0068L39.9708 27.7537Z" fill="#1E293B"/>
<path d="M40.5085 28.3364L40.6417 27.3093H41.2425L41.2205 27.4903H40.829L40.7989 27.7212H41.1904L41.1674 27.8981H40.7759L40.7418 28.1554H41.1344L41.1103 28.3364H40.5085Z" fill="#1E293B"/>
<path d="M41.3126 28.5591H41.1704L41.4128 28.1299H41.6271L41.3126 28.5591Z" fill="#1E293B"/>
<path d="M42.7025 28.3638C42.636 28.3672 42.5696 28.3571 42.507 28.334C42.4444 28.311 42.387 28.2755 42.338 28.2296C42.2921 28.1826 42.2563 28.1264 42.2328 28.0647C42.2094 28.0029 42.1988 27.9368 42.2018 27.8706C42.2015 27.7977 42.2144 27.7253 42.2399 27.6571C42.2653 27.5892 42.3026 27.5264 42.3501 27.472C42.4026 27.412 42.4676 27.3644 42.5403 27.3327C42.6158 27.3006 42.6968 27.2843 42.7786 27.2849C42.8451 27.2814 42.9115 27.2914 42.9741 27.3143C43.0367 27.3372 43.0941 27.3725 43.1431 27.4181C43.189 27.4638 43.2249 27.5187 43.2485 27.5793C43.2721 27.6399 43.283 27.7048 43.2803 27.77C43.2807 27.8433 43.2688 27.9162 43.2453 27.9856C43.2231 28.051 43.1891 28.1117 43.1451 28.1645C43.0902 28.2286 43.0217 28.2794 42.9449 28.313C42.8684 28.3468 42.7859 28.3641 42.7025 28.3638ZM42.7676 27.472C42.7203 27.4707 42.6734 27.48 42.6301 27.4994C42.5868 27.5187 42.5482 27.5476 42.5173 27.5839C42.4498 27.6614 42.414 27.7622 42.4171 27.8656C42.415 27.907 42.421 27.9485 42.4347 27.9876C42.4485 28.0267 42.4697 28.0626 42.4973 28.0933C42.5254 28.1219 42.5591 28.1441 42.5961 28.1586C42.6332 28.1732 42.6729 28.1797 42.7125 28.1777C42.7598 28.1786 42.8067 28.1688 42.8498 28.1492C42.8929 28.1295 42.9312 28.1003 42.9619 28.0639C43.0293 27.9863 43.0651 27.8856 43.062 27.7822C43.0641 27.7409 43.058 27.6996 43.0443 27.6607C43.0305 27.6217 43.0093 27.586 42.9819 27.5554C42.9538 27.5272 42.9203 27.5052 42.8834 27.4909C42.8465 27.4765 42.8071 27.4701 42.7676 27.472Z" fill="#1E293B"/>
<path d="M43.7229 27.3093L43.6458 27.89C43.6458 27.9052 43.6458 27.9205 43.6458 27.9378C43.6458 27.955 43.6458 27.9744 43.6458 27.9947C43.6422 28.0466 43.6584 28.0979 43.6909 28.1381C43.7087 28.1552 43.7298 28.1684 43.7529 28.1768C43.776 28.1852 43.8006 28.1886 43.8251 28.1869C43.863 28.1879 43.9005 28.1791 43.9342 28.1615C43.9662 28.1432 43.9931 28.117 44.0123 28.0852C44.0483 28.0061 44.0697 27.921 44.0754 27.834C44.0751 27.8293 44.0751 27.8245 44.0754 27.8198L44.1425 27.3114H44.3518L44.2777 27.8889C44.2698 27.9603 44.2553 28.0308 44.2346 28.0994C44.2205 28.1435 44.1984 28.1845 44.1695 28.2205C44.1308 28.2703 44.0796 28.3085 44.0213 28.3313C43.9535 28.3572 43.8815 28.3697 43.809 28.3679C43.7063 28.376 43.6044 28.3444 43.5236 28.2794C43.4904 28.2446 43.4649 28.2031 43.4487 28.1575C43.4324 28.1119 43.4259 28.0634 43.4295 28.015C43.4295 27.9988 43.4315 27.9703 43.4355 27.9296C43.4355 27.8889 43.4455 27.8401 43.4525 27.7812L43.5136 27.3114L43.7229 27.3093Z" fill="#1E293B"/>
<path d="M44.6482 28.3364H44.4359L44.5691 27.3093H44.7794C44.8434 27.3075 44.9075 27.3122 44.9706 27.3236C45.0069 27.3324 45.0409 27.3487 45.0708 27.3714C45.1028 27.3943 45.1286 27.4251 45.1459 27.4608C45.163 27.4973 45.1715 27.5374 45.1709 27.5778C45.1736 27.6488 45.1504 27.7183 45.1058 27.773C45.0558 27.8264 44.9901 27.8621 44.9186 27.8747L45.1479 28.3343H44.9156L44.7073 27.8635L44.6482 28.3364ZM44.7233 27.7537H44.7543C44.8108 27.7592 44.8676 27.7476 44.9176 27.7201C44.9332 27.7059 44.9453 27.688 44.9528 27.668C44.9603 27.648 44.963 27.6265 44.9606 27.6052C44.9631 27.5866 44.9611 27.5676 44.9549 27.5499C44.9486 27.5322 44.9382 27.5163 44.9246 27.5035C44.8808 27.4807 44.8314 27.4712 44.7824 27.4761H44.7583L44.7233 27.7537Z" fill="#1E293B"/>
<path d="M45.8358 28.3364L45.945 27.4893H45.6826L45.7066 27.3093H46.4266L46.4036 27.4893H46.1593L46.0501 28.3364H45.8358Z" fill="#1E293B"/>
<path d="M46.6409 28.3364H46.4266L46.5598 27.3093H46.7711C46.8348 27.3074 46.8986 27.3122 46.9614 27.3236C46.9977 27.3322 47.0318 27.3485 47.0615 27.3714C47.0935 27.3943 47.1193 27.4251 47.1366 27.4608C47.1537 27.4973 47.1623 27.5374 47.1616 27.5778C47.1648 27.6489 47.1416 27.7185 47.0965 27.773C47.0467 27.8267 46.9809 27.8624 46.9093 27.8747L47.1386 28.3343H46.9063L46.698 27.8635L46.6409 28.3364ZM46.715 27.7537H46.7461C46.8025 27.7594 46.8594 27.7477 46.9093 27.7201C46.925 27.7059 46.937 27.688 46.9445 27.668C46.952 27.648 46.9547 27.6265 46.9523 27.6052C46.9548 27.5866 46.9529 27.5676 46.9466 27.5499C46.9403 27.5322 46.9299 27.5163 46.9163 27.5036C46.8725 27.4807 46.8231 27.4712 46.7741 27.4761H46.7501L46.715 27.7537Z" fill="#1E293B"/>
<path d="M47.2528 28.3364L47.3859 27.3093H47.9868L47.9647 27.4903H47.5722L47.5432 27.7212H47.9337L47.9107 27.8981H47.5191L47.4861 28.1554H47.8786L47.8546 28.3364H47.2528Z" fill="#1E293B"/>
<path d="M47.9667 28.3364L48.4905 27.3093H48.7218L48.9651 28.3364H48.7398L48.6977 28.1157H48.3122L48.2031 28.3364H47.9667ZM48.6577 27.9469L48.6096 27.7049C48.6096 27.6795 48.6006 27.65 48.5966 27.6144C48.5926 27.5788 48.5896 27.5371 48.5866 27.4873C48.5766 27.5249 48.5656 27.5595 48.5545 27.589C48.5435 27.6185 48.5305 27.651 48.5175 27.6785L48.3943 27.9439L48.6577 27.9469Z" fill="#1E293B"/>
<path d="M49.1383 28.0608C49.1582 28.0984 49.1867 28.1305 49.2215 28.1544C49.2548 28.1754 49.2934 28.186 49.3326 28.1849C49.3712 28.1869 49.409 28.1734 49.4378 28.1472C49.451 28.1341 49.4613 28.1182 49.468 28.1006C49.4747 28.0831 49.4777 28.0643 49.4768 28.0456C49.4767 28.0188 49.4691 27.9927 49.4548 27.9703C49.4369 27.9462 49.414 27.9264 49.3877 27.9123L49.3546 27.894C49.2935 27.8637 49.2371 27.8243 49.1874 27.7771C49.167 27.7531 49.151 27.7256 49.1403 27.6957C49.1215 27.6402 49.1189 27.5804 49.1327 27.5234C49.1466 27.4664 49.1764 27.4147 49.2185 27.3744C49.2828 27.3146 49.3676 27.2828 49.4548 27.2859C49.5079 27.2851 49.5606 27.2962 49.609 27.3185C49.6543 27.3425 49.6931 27.3774 49.7221 27.4202L49.614 27.5625C49.5987 27.5318 49.5759 27.5056 49.5479 27.4863C49.5205 27.4693 49.4889 27.4605 49.4568 27.4609C49.4203 27.459 49.3845 27.4713 49.3566 27.4954C49.3442 27.5061 49.3343 27.5196 49.3277 27.5347C49.3212 27.5499 49.318 27.5663 49.3186 27.5829C49.3186 27.6297 49.3596 27.6764 49.4438 27.7252L49.4808 27.7466C49.5416 27.7785 49.5943 27.824 49.635 27.8798C49.6642 27.931 49.6784 27.9895 49.6761 28.0486C49.6772 28.0923 49.6688 28.1358 49.6515 28.1759C49.6342 28.2159 49.6084 28.2516 49.5759 28.2805C49.5058 28.3419 49.4151 28.3736 49.3226 28.3689C49.2633 28.3699 49.2047 28.3566 49.1514 28.3303C49.0982 28.3021 49.0522 28.2617 49.0172 28.2123L49.1383 28.0608Z" fill="#1E293B"/>
<path d="M50.1377 27.3093L50.0606 27.89C50.0606 27.9052 50.0606 27.9205 50.0606 27.9378C50.0606 27.955 50.0606 27.9744 50.0606 27.9947C50.0573 28.0467 50.0738 28.0981 50.1067 28.1381C50.1243 28.1552 50.1453 28.1684 50.1682 28.1768C50.1911 28.1852 50.2155 28.1886 50.2399 28.1869C50.2778 28.188 50.3153 28.1793 50.349 28.1615C50.3814 28.1438 50.4085 28.1174 50.4271 28.0852C50.4631 28.0061 50.4845 27.921 50.4902 27.834C50.4902 27.8269 50.4902 27.8229 50.4902 27.8198L50.5583 27.3114H50.7676L50.6925 27.8889C50.6853 27.9603 50.6712 28.0308 50.6504 28.0994C50.6354 28.1431 50.6134 28.184 50.5853 28.2205C50.5463 28.2703 50.4947 28.3086 50.4361 28.3313C50.3687 28.3572 50.2969 28.3697 50.2248 28.3679C50.1221 28.3763 50.02 28.3447 49.9394 28.2794C49.9061 28.2447 49.8804 28.2032 49.8642 28.1576C49.8479 28.112 49.8415 28.0634 49.8453 28.015C49.8453 27.9988 49.8473 27.9703 49.8513 27.9296C49.8513 27.8889 49.8603 27.8401 49.8683 27.7812L49.9284 27.3114L50.1377 27.3093Z" fill="#1E293B"/>
<path d="M51.061 28.3364H50.8477L50.9809 27.3093H51.1922C51.2559 27.3074 51.3196 27.3122 51.3824 27.3236C51.4187 27.3322 51.4528 27.3485 51.4826 27.3714C51.5146 27.3943 51.5404 27.4251 51.5577 27.4608C51.5748 27.4973 51.5833 27.5374 51.5827 27.5778C51.5859 27.6489 51.5626 27.7185 51.5176 27.773C51.4677 27.8267 51.402 27.8624 51.3303 27.8747L51.5597 28.3343H51.3333L51.1261 27.8635L51.061 28.3364ZM51.1351 27.7537H51.1661C51.2229 27.7592 51.2801 27.7475 51.3303 27.7201C51.3458 27.7057 51.3578 27.6878 51.3652 27.6679C51.3727 27.6479 51.3755 27.6265 51.3734 27.6052C51.3759 27.5865 51.3739 27.5674 51.3674 27.5497C51.361 27.5319 51.3503 27.5161 51.3364 27.5036C51.2929 27.4808 51.2438 27.4713 51.1952 27.4761H51.1711L51.1351 27.7537Z" fill="#1E293B"/>
<path d="M51.6728 28.3364L51.806 27.3093H52.4068L52.3848 27.4903H51.9933L51.9632 27.7212H52.3537L52.3317 27.8981H51.9392L51.9061 28.1554H52.2987L52.2746 28.3364H51.6728Z" fill="#1E293B"/>
</g>
<defs>
<clipPath id="clip0_77_209">
<rect width="54" height="30" fill="white"/>
</clipPath>
</defs>
</svg>
