<svg width="170" height="120" fill="none" xmlns="http://www.w3.org/2000/svg"><g clip-path="url('#clip0_4_386')"><path fill-rule="evenodd" clip-rule="evenodd" d="m95.65 91.088-.384.057-.049.374-.293.204-.457.08a.81.81 0 0 1-.05-.198h-.183l-.028-.407.77-.057.14-.407.305-.024.36.053-.131.325ZM93.717 91.918l-.551.085.004-.382.22-.342.36.252-.033.387Z" fill="#fff"/><path fill-rule="evenodd" clip-rule="evenodd" d="m108.531 70.006-.502-.887-1.26-.305-.485-.158-1.019.512.783.744 1.574.062.322.117-.204.26.383.717-.473.553-.563.142-.55-.297.852-.362.065-.406-2.446-.318-.408-.443-.408 1.041-.815.228-.408 2.066.057.704-.697.407-1.081.561-.816.025-.815-1.188-.086-.724.987-.814 1.329-.358-.183-.744-.583.134-.355-1.114 1.117-.814.245-1.627.816-.586.852-.288.281-.139-.726-1.053-.766.878-.751-.654-.599.195-.408-.513.216-.72.681-.764a25.836 25.836 0 0 0-16.868 1.094 25.753 25.753 0 0 0-12.561 11.283l.852-.431.677.024 1.097-.288.27.353 1.63-.744-.477-.407-1.419.663.167-.467-.302-.322-1.272.639.86-1.725 1.326-.67 1.068.548 1.06-.468.319-.927h.579l-.429 1.265-1.117.598c.196.234.367.487.51.757l1.423-.753-.045-.468.958-.57-.167-.63-.64.183-.065-.614.375-.366 1.607-.704-.473 1.22.444.53.962-.314-.611-1.07.64-.882 1.435-.936 2.688-.13.407.838.796-.191-.025.85-.99.5.089.9-2.545.618 1.301-1.863-.962-.232-1.448.976-.057.203v.037l-.216.683-.722.464.24.334.315-.037.049.134-.555.386.135.37-.559.314-.44-.63-.865.813-1.472 2.278.669.732.783.093 1.223-.43.677 1.338.497-.375-.02-1.285 1.044-1.013-.816-1.603.408-.862 1.872-.451.408 1.114.448-.228.922-1.22.754 1.35 1.17.09.376.846-.71.708.196.248 1.272-.045.27.562-.294.183-1.472.24-.27-.407.245-.456-.191-.378-.461.093.073.407-.656.472h-.086l.02.04-.236.155-.408-.3h-.281l-.51.272-.147.3.22.432.518-.085.461-.163-.07.106-.187.634-.277-.138-.428.094-.555 1.504.2.041-1.105 1.627-.69 2.258.23.724-.96 1.675-.358 1.09.816 1.392-1.224.04-.408-.838-2.764 1.396-1.093 1.435-.037 1.453.208 1.033.856.687 1.195-.447 1.179-2.1.473.517-.037 1.31 1.488-.451 1.224 2.033 2.039-.626.489-1.977 1.599-.44.864.46 1.337-.78-.163-.427.955-.025 1.529.907 1.492-.72 1.024.675.677 1.127 1.949-.195 2.076-1.03 1.121.692 1.056-.163.241.891-.355 1.786 1.134 2.961-.551 1.168-1.354.65-.073.997 1.076 1.293-.518 2.604-.024 1.098-1.056 1.37-.852.607.171.406.734-.142.126.46-.289.846.567.256.713-.326.224.55.09.622.143.451 1.468.342.086.517-1.403.691-1.994-.516-2.04-1.343-.774-1.916-1.374-.671-.604-2.033-.558.105-2.04-3.994s-1.9-.354-1.969-.321c-.07.032-.815.199-.815.199l-.53-.696-2.896-1.317-.22-.887-.624-1.306.816-1.472-.938-1.375-1.86.76-2.214-.878-1.134.224-.697.211-.228-.622-.873.285.171.333-2.312.52-1.46-.833.025-.781-2.251-1.22-.922-1.253-.53.268.856 1.245 1.595.927.175.594-.815.269-1.742-1.115-.937-1.855H69.71l-.632-1.252c.17 2.81.805 5.572 1.88 8.175l.045.118c.057.147.126.29.192.448l.097.195.155.342.155.341.135.265.07.138c.31.614.627 1.22.982 1.761l.318.525a25.746 25.746 0 0 0 11.419 9.7 25.823 25.823 0 0 0 14.9 1.713 25.79 25.79 0 0 0 13.331-6.855 25.68 25.68 0 0 0 7.245-13.1l-.6-1.183-1.5-.745-.954-1.879-1.024-.325-.465-.745.041-2.099-3.103-2.046-.816-2.062-1.557.594-.841-.277-.99.5-.261.729-1.762.887.024.178-.978.493-3.54-1.416-.974-1.993.293-.321-.249-.838-.53.268-.611-.687 1.651-3.177-.685-1.318.918-1.338.526-.211 1.044-.53.607-.845 2.516-1.534.685 1.35 2.357-.54.551.09.379-.192-.367-.724.444-1.566-1.7-.659Z" fill="#0090A5"/><path fill-rule="evenodd" clip-rule="evenodd" d="m107.402 78.804-.09 1.098.269.533.592-.3.697-1.294-.241-.582-.616.033-.611.512Z" fill="#0090A5"/><path fill-rule="evenodd" clip-rule="evenodd" d="m109.489 79.915.751-.379.954-.61.204-.878-.653.069-.473-.208-.823-.488-.739-.944-.766.61-.049.489.208.41.538.082.779.07.253.39-.551.443.367.944Z" fill="#0090A5"/><path d="M97.272 19.947s-3.058 1.22-4.212 18.67c0 0-6.627-20.712-.791-26.74 0 0 3.246 2.254 5.003 8.07Z" fill="#0090A5"/><path d="M103.336 18.076s-10.015 34.167 66.232 26.15c0 0-12.482 7.147-35.82 3.974-22.668-3.087-45.12-15.86-30.412-30.124Z" fill="#29275C"/><path d="M108.629 7.122s1.676-.642 2.377-1.907l21.474.569-20.899 4.735s-.408-1.27-2.879-2.583l20.414-1.798-20.487.984Z" fill="#BD1F2D"/><path d="M88.692 29.12c-.232.597-.407 2.912-1.48 6.215-.983 2.997-2.385 5.788-3.262 9.55-1.395 6.069-1.664 13.988-1.525 17.523 1.268-1.688 1.321-3.075 2.736-7.2 3.115-9.038 6.357-16.213 3.531-26.089Z" fill="#5B1F59"/><path d="M80.153 29.701c-9.415 1.22-17.905 4.881-25.69 9.725a21.446 21.446 0 0 1-3.458 1.843c8.971-.777 15.088-3.254 22.449-7.602 2.128-1.265 4.595-2.396 6.7-3.966ZM53.762 37.51c-12.592 4.23-22.583-1.403-32.696-6.572 10.447 8.558 21.062 14.736 32.696 6.573Z" fill="#29275C"/><path d="M40.158 44.023c-3.005.177-6.014-.3-8.816-1.4-7.046-2.847-9.175-8.541-14.598-8.663-2.406-.05-4.364 1.033-5.526 1.822 2.608-.121 5.207.38 7.58 1.464 3.532 1.664 3.728 3.478 7.883 5.52a19.286 19.286 0 0 0 7.777 2.034c1.93.053 3.855-.209 5.7-.777Z" fill="#046737"/><path d="M32.341 45.764a23.711 23.711 0 0 1-7.809-.379c-7.527-1.655-12.09-6.617-13.758-8.635 2.274.129 4.501.704 6.553 1.692 3.033 1.473 3.96 3.087 6.777 4.755a19.638 19.638 0 0 0 8.237 2.567Z" fill="#046737"/><path d="M140.485 57.718a26.954 26.954 0 0 1 9.044-3.575c7.687-1.48 12.792.28 17.27-2.961A10.084 10.084 0 0 0 170 47.167c-.787.502-1.604.956-2.447 1.358a26.568 26.568 0 0 1-4.114 1.526c-4.894 1.314-9.285-.118-14.448 1.667 0 0-5.501 1.977-8.523 6h.017Z" fill="#0090A5"/><path d="M164.536 54.066s-6.296 7.211-17.78 3.71a11.287 11.287 0 0 1 3.972-2.29c3.177-1.01 5.187.04 9.502-.473a22.399 22.399 0 0 0 4.306-.947ZM37.553 46.366s6.667 2.928 11.915-1.375c-3.886 6-7.87 5.613-11.915 1.375Z" fill="#0090A5"/><path d="M65.97 41.017a44.076 44.076 0 0 0-8.713 17.356c-1.631 6.593-5.84 6.707-8.23 4.665-1.296-1.106-1.708-3.538-1.7-4.34.025-4.214 2.838-11.336 18.644-17.681ZM124.451 50.437s3.348.769 10.374.366c3.784-.22 4.33 2.888 3.437 4.259a4.594 4.594 0 0 1-2.165 1.493c-2.316.537-6.659.358-11.646-6.118Z" fill="#BD1F2D"/><path d="M122.098 51.332c-.029 4.686-.816 7.354-1.631 8.949-.188.374-.726 1.403-.408 2.505a3.15 3.15 0 0 0 2.724 2.205c1.529.081 2.61-1.257 2.732-1.407 2.667-3.291-3.128-11.833-3.417-12.252ZM94.336 40.59s-1.284 5.536 2.581 12.536c2.398 4.34 1.525 7.704-.815 7.846-1.252.077-2.692-1-3.087-1.432-2.072-2.249-4.098-7.472 1.321-18.95Z" fill="#046737"/><path d="M97.851 33.581s.995 2.754 4.38 6.077c2.353 2.307 6.19 4.723 10.26 7.37 8.196 5.33 5.517 11.687 1.28 13.228-2.19.797-16.809 3.096-15.92-26.675ZM77.397 37.006s-4.151 3.718-4.743 20.293c-.179 5.109-1.13 8.225-2.352 10.092-2.757 4.19-8.817 2.72-9.587-2.416-.963-6.427.811-18.337 16.682-27.969Z" fill="#F2A51A"/><path d="M0 38.548a28.59 28.59 0 0 1 11.944 4.474c5.542 3.75 6.577 7.574 10.44 10.726 3.555 2.905 9.855 5.52 21.848 3.51-13.69 5.065-20.63 3.336-24.467.578-3.262-2.355-4.318-5.511-10.565-11.62A75.507 75.507 0 0 0 0 38.547Z" fill="#0090A5"/><path d="M51.804 44.181c-.787 2.087-2.764 6.362-7.189 9.116a12.391 12.391 0 0 1-5.619 1.98c-1.142.078-4.453.306-6.451-1.931-.224-.253-1.994-2.29-1.223-4.174.595-1.42 2.377-2.107 3.796-2.062 2.965.09 3.731 3.335 6.186 4.047 1.937.557 5.09-.374 10.5-6.976ZM58.594 63.828a16.238 16.238 0 0 0-1.819 7.476c.02 2.257.567 3.306.787 3.689.75 1.306 2.484 3.112 4.51 2.79.102 0 1.782-.313 2.362-1.655.579-1.343-.408-2.652-.49-2.77-1.146-1.501-2.944-.915-4.27-1.83-1.133-.79-1.997-2.738-1.08-7.7Z" fill="#0090A5"/><path d="M99.703 3.51a4.235 4.235 0 0 1 4.155 2.306 126.45 126.45 0 0 1 6.361-.723S90.581-7.924 83.391 7.65c-2.854 6.166 1.538 13.67-.142 21.025-2.57 11.239-7.459 18.393-7.67 27.289-.282 11.702-.963 11.56-.963 11.56s3.617-3.575 5.709-16.677c.987-6.24 3.156-11.67 5.028-17.49 2.805-8.721 1.142-14.237 3.221-19.032a13.5 13.5 0 0 1 7.3-6.915 4.222 4.222 0 0 1 1.198-2.65 4.241 4.241 0 0 1 2.63-1.25Z" fill="#5B1F59"/><path d="M99.89 5.646a2.087 2.087 0 0 1 2.034 1.106 2.076 2.076 0 0 1-1.26 2.958 2.088 2.088 0 0 1-2.21-.691 2.076 2.076 0 0 1-.452-1.12l2.076-.183-.188-2.07Z" fill="#0090A5"/><path d="M104.29 8.127a4.22 4.22 0 0 1-1.095 2.436 4.24 4.24 0 0 1-4.993.933 4.231 4.231 0 0 1-1.904-1.876c-2.198.736-3.043 1.427-3.043 1.427 3.67 3.067 4.682 8.432 4.682 8.432 4.465-5.32 11.932-7.996 11.932-7.996-1.603-2.713-5-3.279-5.579-3.356Z" fill="#0090A5"/><path d="M98.83 7.143a.53.53 0 1 0 .002-1.06.53.53 0 0 0-.002 1.06Z" fill="#fff"/><path d="M54.708 67.545s-8.971.956-11.275-7.399c-.326 10.067 4.053 11.377 11.275 7.4ZM97.015 119.919a31.15 31.15 0 0 1-15.596-2.946 31.047 31.047 0 0 1-12.103-10.245 30.925 30.925 0 0 1-2.827-30.486.905.905 0 0 1 1.63.744 29.108 29.108 0 0 0-1.317 20.622 29.187 29.187 0 0 0 12.707 16.32 29.313 29.313 0 0 0 20.356 3.833 29.258 29.258 0 0 0 17.796-10.578.92.92 0 0 1 .611-.37.917.917 0 0 1 .69.187.914.914 0 0 1 .338.629.884.884 0 0 1-.042.361.885.885 0 0 1-.182.316 31.114 31.114 0 0 1-9.813 8.106 31.19 31.19 0 0 1-12.248 3.507ZM118.55 84.218s5.583-1.684 6.525-7.025c.779 5.666-1.852 7.505-6.525 7.025ZM112.185 64.14c1.871.342 5.762 1.347 8.747 4.63a10.577 10.577 0 0 1 2.516 4.397c.236.947.929 3.66-.649 5.694-.175.224-1.631 2.013-3.323 1.627-1.285-.28-2.129-1.668-2.308-2.847-.375-2.49 2.239-3.62 2.447-5.784.195-1.688-1.065-4.194-7.43-7.716Z" fill="#0090A5"/></g><defs><clipPath id="clip0_4_386"><path fill="#fff" d="M0 0h170v120H0z"/></clipPath></defs></svg>