<svg width="8" height="8" fill="none" xmlns="http://www.w3.org/2000/svg"><path d="M7.475 3.044a.512.512 0 0 0-.456-.357L5.163 2.56 4.475.825A.512.512 0 0 0 3.713.59a.512.512 0 0 0-.188.235l-.7 1.744-1.844.119a.516.516 0 0 0-.456.356.525.525 0 0 0 .163.565l1.418 1.2-.422 1.66a.578.578 0 0 0 .22.612.563.563 0 0 0 .627.019l1.466-.928h.006l1.578.997a.503.503 0 0 0 .679-.123.516.516 0 0 0 .087-.446L5.9 4.784 7.313 3.61a.525.525 0 0 0 .162-.565Z" fill="url('#paint0_linear_64_527')"/><defs><linearGradient id="paint0_linear_64_527" x1=".499" y1=".5" x2="7.988" y2="1.093" gradientUnits="userSpaceOnUse"><stop stop-color="#0891B2"/><stop offset="1" stop-color="#06B6D4"/></linearGradient></defs></svg>