<svg width="54" height="30" fill="none" xmlns="http://www.w3.org/2000/svg"><g clip-path="url('#clip0_77_209')"><path fill-rule="evenodd" clip-rule="evenodd" d="m23.488 22.772-.094.014-.012.094-.072.05-.112.021a.204.204 0 0 1-.012-.05h-.045l-.007-.102.189-.014.034-.102.075-.006.088.014-.032.081ZM23.014 22.98l-.136.02.001-.095.054-.085.089.063-.008.097Z" fill="#F8FAFC"/><path fill-rule="evenodd" clip-rule="evenodd" d="m26.651 17.502-.123-.222-.31-.076-.118-.04-.25.128.192.186.386.015.08.03-.05.065.093.179-.116.138-.138.036-.135-.074.21-.09.015-.103-.6-.079-.1-.11-.1.26-.201.056-.1.517.014.176-.172.102-.265.14-.2.006-.2-.297-.021-.18.242-.204.326-.09-.045-.186-.143.034-.087-.279.274-.203.06-.407.2-.146.21-.073.069-.034-.178-.264-.189.22-.184-.164-.147.05-.1-.129.053-.18.167-.191a6.24 6.24 0 0 0-4.142.274 6.364 6.364 0 0 0-3.085 2.82l.21-.107.166.006.27-.073.065.089.4-.186-.116-.102-.349.166.041-.117-.074-.08-.312.16.211-.432.326-.168.262.138.26-.117.078-.232h.142l-.105.316-.274.15a1.1 1.1 0 0 1 .125.189l.35-.189-.011-.116.235-.143-.041-.157-.157.045-.016-.153.092-.092.394-.176-.116.305.11.133.236-.079-.15-.267.157-.22.352-.235.66-.032.1.21.195-.049-.006.213-.243.125.022.225-.625.154.32-.465-.237-.058-.355.244-.014.05v.01l-.053.17-.178.116.06.084.077-.01.012.034-.137.097.034.092-.138.079-.108-.158-.212.203-.361.57.164.183.192.023.3-.107.167.334.122-.093-.005-.322.256-.253-.2-.4.1-.216.46-.113.1.278.11-.056.226-.305.185.337.288.023.092.211-.174.177.048.062.312-.011.066.14-.072.046-.361.06-.066-.102.06-.114-.047-.094-.114.023.018.102-.16.118h-.022l.005.01-.058.039-.1-.076h-.069l-.125.069-.036.075.054.107.127-.02.113-.042-.017.027-.046.159-.068-.035-.105.023-.136.377.049.01-.272.407-.169.564.056.18-.235.42-.088.272.2.348-.3.01-.1-.21-.68.35-.268.359-.009.363.051.258.21.172.294-.112.29-.525.116.13-.01.327.366-.113.3.508.501-.156.12-.494.393-.11.212.115.328-.196-.04-.106.235-.006.375.226.367-.18.251.17.166.28.479-.048.51-.257.275.172.26-.04.058.223-.087.446.279.74-.135.292-.333.163-.018.249.265.323-.128.651-.006.275-.26.342-.208.152.042.102.18-.036.031.115-.071.211.14.064.174-.08.055.136.022.156.035.113.361.085.021.13-.345.172-.49-.129-.5-.335-.19-.48-.337-.167-.149-.509-.137.027-.5-.999s-.467-.088-.484-.08c-.017.008-.2.05-.2.05l-.13-.174-.712-.33-.054-.221-.153-.327.2-.368-.23-.343-.457.19-.543-.22-.279.056-.171.053-.056-.156-.214.071.042.084-.568.13-.359-.209.006-.195-.552-.305-.227-.313-.13.067.21.311.392.232.043.149-.2.067-.428-.279-.23-.464h-.3l-.156-.313c.042.703.198 1.393.462 2.044l.01.03.048.111.024.05.038.085.038.085.033.066.017.035c.076.153.154.305.242.44l.078.131a6.354 6.354 0 0 0 2.804 2.425 6.239 6.239 0 0 0 3.659.428 6.294 6.294 0 0 0 3.273-1.713 6.453 6.453 0 0 0 1.78-3.275l-.148-.296-.368-.186-.235-.47-.251-.081-.114-.186.01-.525-.762-.512-.2-.515-.383.148-.206-.069-.244.125-.064.182-.432.222.006.045-.24.123-.87-.354-.24-.498.073-.08-.061-.21-.13.067-.15-.172.405-.794-.168-.33.225-.334.13-.053.256-.132.149-.212.618-.383.168.337.579-.135.135.023.093-.048-.09-.181.11-.392-.419-.165Z" fill="#0090A5"/><path fill-rule="evenodd" clip-rule="evenodd" d="m26.374 19.701-.022.275.066.133.145-.076.172-.323-.06-.145-.15.008-.15.128Z" fill="#0090A5"/><path fill-rule="evenodd" clip-rule="evenodd" d="m26.887 19.979.184-.095.234-.152.05-.22-.16.017-.116-.052-.202-.122-.181-.236-.189.153-.012.122.051.103.133.02.19.017.063.098-.135.11.09.237Z" fill="#0090A5"/><path d="M23.887 4.987s-.751.305-1.035 4.667c0 0-1.627-5.178-.194-6.685 0 0 .797.564 1.229 2.018Z" fill="#0090A5"/><path d="M25.376 4.519s-2.46 8.542 16.264 6.537c0 0-3.065 1.787-8.796.994-5.567-.772-11.08-3.965-7.468-7.531Z" fill="#29275C"/><path d="M26.676 1.78s.411-.16.583-.476l5.274.142L27.4 2.63s-.1-.318-.706-.646l5.012-.45-5.03.247Z" fill="#BD1F2D"/><path d="M21.78 7.28c-.057.15-.1.728-.364 1.554-.241.75-.585 1.447-.8 2.387-.343 1.518-.41 3.497-.375 4.381.311-.422.324-.769.672-1.8.765-2.26 1.56-4.053.867-6.522Z" fill="#5B1F59"/><path d="M19.683 7.425c-2.312.305-4.397 1.22-6.309 2.432-.268.18-.553.333-.849.46 2.203-.194 3.705-.813 5.513-1.9.522-.317 1.128-.6 1.645-.992ZM13.202 9.378c-3.092 1.057-5.545-.351-8.029-1.644 2.566 2.14 5.172 3.684 8.03 1.644Z" fill="#29275C"/><path d="M9.862 11.006a5.022 5.022 0 0 1-2.165-.35C5.967 9.944 5.443 8.52 4.112 8.49c-.591-.012-1.072.258-1.357.455a3.97 3.97 0 0 1 1.861.367c.868.415.916.869 1.936 1.38a4.67 4.67 0 0 0 1.91.508c.474.013.946-.052 1.4-.194Z" fill="#046737"/><path d="M7.942 11.44a5.72 5.72 0 0 1-1.918-.094c-1.848-.414-2.969-1.654-3.378-2.159a4.201 4.201 0 0 1 1.609.424c.745.368.972.771 1.664 1.188.62.364 1.31.583 2.023.642Z" fill="#046737"/><path d="M34.498 14.43a6.55 6.55 0 0 1 2.221-.894c1.888-.37 3.142.07 4.241-.74.343-.26.614-.606.786-1.004a5.602 5.602 0 0 1-.6.34 6.452 6.452 0 0 1-1.011.38c-1.202.33-2.28-.029-3.548.418 0 0-1.35.494-2.093 1.5h.004Z" fill="#0090A5"/><path d="M40.404 13.516s-1.546 1.803-4.366.928a2.76 2.76 0 0 1 .976-.573c.78-.252 1.273.01 2.333-.118.36-.043.713-.122 1.057-.237ZM9.222 11.591s1.637.733 2.926-.343c-.955 1.5-1.933 1.403-2.926.343Z" fill="#0090A5"/><path d="M16.2 10.254a11.095 11.095 0 0 0-2.14 4.34c-.4 1.648-1.434 1.676-2.02 1.166-.319-.277-.42-.885-.418-1.085.006-1.054.697-2.835 4.578-4.42ZM30.56 12.61s.823.192 2.548.09c.93-.054 1.064.723.845 1.066a1.128 1.128 0 0 1-.532.373c-.569.134-1.635.09-2.86-1.53Z" fill="#BD1F2D"/><path d="M29.983 12.833c-.007 1.171-.2 1.839-.4 2.237-.046.094-.179.351-.1.627.045.148.133.28.252.378a.77.77 0 0 0 .416.173c.376.02.641-.315.671-.352.655-.823-.768-2.958-.839-3.063ZM23.166 10.148s-.316 1.383.634 3.133c.588 1.085.374 1.926-.2 1.962-.308.02-.662-.25-.759-.358-.508-.562-1.006-1.868.325-4.737Z" fill="#046737"/><path d="M24.029 8.395s.244.689 1.075 1.52c.578.576 1.52 1.18 2.52 1.842 2.013 1.332 1.355 2.922.314 3.307-.537.2-4.127.774-3.91-6.669ZM19.006 9.252s-1.02.929-1.165 5.073c-.044 1.277-.277 2.056-.577 2.523-.677 1.047-2.165.68-2.355-.604-.236-1.607.2-4.584 4.097-6.992Z" fill="#F2A51A"/><path d="M0 9.637a6.945 6.945 0 0 1 2.933 1.118c1.36.938 1.615 1.894 2.564 2.682.873.726 2.42 1.38 5.365.878-3.362 1.266-5.066.834-6.008.144-.801-.589-1.06-1.378-2.595-2.905A18.62 18.62 0 0 0 0 9.637Z" fill="#0090A5"/><path d="M12.721 11.045c-.193.522-.678 1.59-1.765 2.28a3.008 3.008 0 0 1-1.38.494c-.28.02-1.093.077-1.584-.483-.055-.063-.49-.572-.3-1.043.146-.355.583-.527.932-.515.728.022.916.833 1.519 1.011.475.14 1.25-.093 2.578-1.744ZM14.389 15.957a4.12 4.12 0 0 0-.447 1.869c.005.564.14.827.193.922.185.327.61.778 1.108.698.025 0 .438-.079.58-.414.142-.336-.1-.663-.12-.693-.282-.375-.723-.228-1.049-.457-.278-.197-.49-.684-.265-1.925Z" fill="#0090A5"/><path d="M24.483.878c.208-.02.416.026.598.129.182.102.33.258.423.447.438-.063.96-.126 1.562-.18 0 0-4.822-3.255-6.588.639-.7 1.541.378 3.417-.035 5.256-.63 2.81-1.832 4.598-1.884 6.822-.069 2.926-.236 2.89-.236 2.89s.888-.894 1.402-4.169c.242-1.56.775-2.917 1.235-4.373.689-2.18.28-3.559.79-4.758a3.34 3.34 0 0 1 1.793-1.728c.018-.25.122-.484.294-.663.173-.178.402-.289.646-.312Z" fill="#5B1F59"/><path d="M24.53 1.411a.505.505 0 0 1 .499.277.526.526 0 0 1-.06.574.51.51 0 0 1-.546.163.511.511 0 0 1-.357-.45l.51-.046-.046-.518Z" fill="#0090A5"/><path d="M25.61 2.032c-.022.227-.117.44-.269.609a1.026 1.026 0 0 1-1.226.233 1.048 1.048 0 0 1-.468-.47c-.54.185-.747.358-.747.358.902.767 1.15 2.108 1.15 2.108 1.096-1.33 2.93-2 2.93-2-.394-.678-1.228-.819-1.37-.838Z" fill="#0090A5"/><path d="M24.27 1.786c.071 0 .13-.06.13-.133a.131.131 0 0 0-.13-.132c-.073 0-.13.06-.13.132 0 .073.057.133.13.133Z" fill="#F8FAFC"/><path d="M13.434 16.886s-2.203.24-2.768-1.85c-.08 2.517.995 2.845 2.768 1.85ZM23.824 29.98a7.53 7.53 0 0 1-3.83-.737 7.662 7.662 0 0 1-2.972-2.561 7.855 7.855 0 0 1-.694-7.622.219.219 0 0 1 .28-.084.229.229 0 0 1 .12.27 7.399 7.399 0 0 0-.324 5.156 7.28 7.28 0 0 0 3.12 4.08 7.092 7.092 0 0 0 5 .958 7.164 7.164 0 0 0 4.37-2.644.224.224 0 0 1 .15-.093.218.218 0 0 1 .169.047.226.226 0 0 1 .073.248.226.226 0 0 1-.045.078 7.674 7.674 0 0 1-2.41 2.027c-.932.5-1.956.798-3.007.877ZM29.112 21.055s1.37-.421 1.602-1.757c.191 1.417-.454 1.877-1.602 1.757ZM27.549 16.035c.46.086 1.415.337 2.148 1.157.29.31.502.688.617 1.1.059.237.229.915-.159 1.423-.043.056-.4.504-.816.407-.315-.07-.522-.417-.567-.712-.092-.622.55-.905.601-1.446.048-.422-.261-1.048-1.824-1.929Z" fill="#0090A5"/><path d="M31.545 21.768a.898.898 0 0 1 1.209-.19h.007c.229.142.493.212.76.205.266.015.528-.077.728-.256a.926.926 0 0 0 .263-.703.908.908 0 0 0-.15-.517 1.325 1.325 0 0 0-.462-.4l-.223-.126c-.57-.314-.953-.582-1.148-.804a1.717 1.717 0 0 1-.326-.562 2.04 2.04 0 0 1-.112-.683 2.016 2.016 0 0 1 .646-1.512c.43-.406.973-.61 1.628-.61.364-.007.724.07 1.054.224.313.154.582.386.784.673l-.216.283a.73.73 0 0 1-.98.174 1.143 1.143 0 0 0-.627-.173.96.96 0 0 0-.667.236.765.765 0 0 0-.263.603c0 .318.288.642.864.973l.251.15c.522.311.876.616 1.064.915.187.298.28.684.28 1.157 0 .659-.22 1.19-.658 1.596-.438.406-1.02.609-1.744.61a2.54 2.54 0 0 1-1.178-.265 2.67 2.67 0 0 1-.92-.814l.136-.184ZM35.48 22.837l3.6-7.058h1.586l1.671 7.058h-1.543l-.294-1.52h-2.645l-.75 1.52H35.48Zm4.75-2.675-.333-1.669a7.437 7.437 0 0 1-.085-.62 19.483 19.483 0 0 1-.066-.79l-.229.636c-.079.22-.163.425-.252.61l-.845 1.83 1.81.003ZM42.484 22.837l.916-7.058h1.515l2.15 3.64c.232.398.397.699.494.901l.24.497a21.82 21.82 0 0 1 .102-1.413l.48-3.625h1.367l-.918 7.058h-1.413l-2.392-4.108a9.372 9.372 0 0 1-.36-.66 5.749 5.749 0 0 1-.233-.545v.227c0 .24-.007.473-.02.698a9 9 0 0 1-.056.637l-.518 3.751h-1.354ZM49.344 21.768a.899.899 0 0 1 1.21-.19h.005c.23.142.493.212.76.205.267.015.529-.077.73-.256a.93.93 0 0 0 .263-.703.909.909 0 0 0-.152-.517 1.316 1.316 0 0 0-.461-.4l-.224-.126c-.569-.314-.952-.582-1.148-.804a1.735 1.735 0 0 1-.325-.562 2.037 2.037 0 0 1-.112-.683 2.015 2.015 0 0 1 .642-1.512c.43-.406.973-.61 1.629-.61.363-.007.723.07 1.053.224a2.096 2.096 0 0 1 .782.672.01.01 0 0 1-.001.005l-.207.273a.736.736 0 0 1-.99.176 1.142 1.142 0 0 0-.628-.173.961.961 0 0 0-.666.236.767.767 0 0 0-.264.603c0 .317.288.642.864.973.112.065.195.115.252.15.523.311.877.616 1.063.914.187.299.28.684.28 1.158 0 .659-.219 1.19-.657 1.596-.439.405-1.02.609-1.745.61a2.546 2.546 0 0 1-1.177-.265 2.655 2.655 0 0 1-.92-.81l.002-.005.142-.179ZM31.684 26.216l.177-1.344h-.327l.051-.396h.322l.075-.577h.5l-.078.577h.332l-.05.396h-.333l-.174 1.344h-.495ZM33.78 24.418a.874.874 0 0 1 .644.236.838.838 0 0 1 .24.633.973.973 0 0 1-.283.712.99.99 0 0 1-.726.281.846.846 0 0 1-.629-.234.831.831 0 0 1-.236-.622.984.984 0 0 1 .277-.726.955.955 0 0 1 .713-.285v.005Zm0 .458a.446.446 0 0 0-.354.151.575.575 0 0 0-.135.398.417.417 0 0 0 .1.295.355.355 0 0 0 .274.108.458.458 0 0 0 .354-.149.557.557 0 0 0 .136-.388.43.43 0 0 0-.1-.305.369.369 0 0 0-.27-.11h-.005ZM35.612 24.476l-.092.727c0 .02-.007.051-.013.09-.012.076-.02.151-.022.227a.334.334 0 0 0 .079.239.3.3 0 0 0 .228.083.348.348 0 0 0 .3-.133c.066-.09.117-.269.153-.535l.089-.698h.494l-.1.76a2.597 2.597 0 0 1-.108.527.747.747 0 0 1-.456.462 1.123 1.123 0 0 1-.383.06.891.891 0 0 1-.58-.175.567.567 0 0 1-.214-.468c0-.046 0-.111.011-.196.011-.084.021-.195.039-.334l.082-.636h.493ZM37.07 26.216l.226-1.74h.495l-.044.305c.052-.107.13-.2.224-.271a.506.506 0 0 1 .294-.092.663.663 0 0 1 .083 0 .554.554 0 0 1 .072.014l-.1.502a.757.757 0 0 0-.1-.028.646.646 0 0 0-.1-.008.384.384 0 0 0-.314.143.852.852 0 0 0-.151.43l-.093.741-.491.004ZM41.22 26.216l-.16-.239c-.09.099-.198.178-.317.235a.88.88 0 0 1-.367.073.772.772 0 0 1-.56-.203.703.703 0 0 1-.215-.535.766.766 0 0 1 .15-.462 1.4 1.4 0 0 1 .468-.38c-.06-.1-.111-.206-.153-.315a.74.74 0 0 1-.048-.247.543.543 0 0 1 .184-.417.681.681 0 0 1 .47-.165.736.736 0 0 1 .484.156.487.487 0 0 1 .19.395.58.58 0 0 1-.122.354c-.12.143-.26.266-.418.363l.338.503c.093-.093.166-.167.216-.223.05-.056.1-.11.139-.165l.28.326a8.406 8.406 0 0 1-.38.405l.39.544-.57-.003Zm-.401-.585-.383-.564a.987.987 0 0 0-.252.214.358.358 0 0 0-.077.222.325.325 0 0 0 .085.233.292.292 0 0 0 .218.09c.07 0 .138-.016.2-.047a.879.879 0 0 0 .209-.148Zm-.225-1.15a.82.82 0 0 0 .244-.18.293.293 0 0 0 .08-.195.22.22 0 0 0-.06-.16.201.201 0 0 0-.154-.062.215.215 0 0 0-.167.072.264.264 0 0 0-.066.184c.002.046.011.093.029.136.025.07.056.138.09.204h.004ZM43.233 26.216l.177-1.344h-.327l.051-.396h.325l.075-.577h.5l-.078.577h.332l-.05.396h-.333l-.174 1.344h-.498ZM44.346 26.216l.225-1.74h.495l-.044.305c.052-.107.13-.2.224-.271a.505.505 0 0 1 .294-.092.703.703 0 0 1 .083 0 .535.535 0 0 1 .072.014l-.1.502a.754.754 0 0 0-.1-.028.646.646 0 0 0-.1-.008.381.381 0 0 0-.314.143.85.85 0 0 0-.151.43l-.093.741-.491.004ZM47.439 26.216h-.493l.028-.193a.565.565 0 0 1-.218.197.668.668 0 0 1-.3.065.627.627 0 0 1-.511-.216.925.925 0 0 1-.183-.61c-.011-.27.072-.534.233-.748a.735.735 0 0 1 .916-.216c.097.052.178.13.235.225l.029-.243h.492l-.228 1.74Zm-.346-.966a.45.45 0 0 0-.105-.317.374.374 0 0 0-.289-.114.395.395 0 0 0-.334.16.706.706 0 0 0-.124.441.421.421 0 0 0 .11.305.4.4 0 0 0 .3.114.377.377 0 0 0 .32-.162.693.693 0 0 0 .123-.427ZM48.274 26.216l-.433-1.74h.532l.178.916c.01.067.018.128.023.18.005.051.008.101.008.15v.04c.026-.08.05-.154.073-.218.023-.064.046-.118.067-.163l.44-.905h.57l-.926 1.74h-.532ZM50.252 25.458v.038a.358.358 0 0 0 .109.277.418.418 0 0 0 .3.102.465.465 0 0 0 .234-.058.661.661 0 0 0 .2-.186l.331.28a.796.796 0 0 1-.323.28c-.148.068-.309.1-.47.096a.862.862 0 0 1-.637-.235.834.834 0 0 1-.237-.625 1 1 0 0 1 .275-.722.926.926 0 0 1 .691-.285.78.78 0 0 1 .601.237.924.924 0 0 1 .22.657c0 .029 0 .073-.006.137v.009l-1.288-.002Zm.026-.295h.807a.4.4 0 0 0-.093-.277.336.336 0 0 0-.256-.102.443.443 0 0 0-.292.095.537.537 0 0 0-.166.284ZM51.822 26.216l.354-2.745h.494l-.354 2.745h-.494ZM30.488 28.336l.073-.47-.256-.557h.233l.1.259a.666.666 0 0 1 .039.139.95.95 0 0 1 .07-.125l.01-.018.16-.255h.249l-.392.554-.074.473h-.212ZM31.615 28.364a.491.491 0 0 1-.364-.134.48.48 0 0 1-.137-.36.6.6 0 0 1 .149-.398.53.53 0 0 1 .19-.14.6.6 0 0 1 .238-.047.503.503 0 0 1 .365.133.464.464 0 0 1 .136.352.66.66 0 0 1-.034.216.567.567 0 0 1-.543.378Zm.064-.892a.316.316 0 0 0-.249.112.403.403 0 0 0-.1.282.32.32 0 0 0 .081.227.284.284 0 0 0 .215.085.32.32 0 0 0 .25-.114.41.41 0 0 0 .1-.282.317.317 0 0 0-.08-.227.289.289 0 0 0-.217-.083ZM32.638 27.31l-.076.58V27.995a.205.205 0 0 0 .046.143.177.177 0 0 0 .134.049.225.225 0 0 0 .109-.026.217.217 0 0 0 .078-.076.749.749 0 0 0 .062-.251v-.014l.068-.509h.21l-.075.578a1.168 1.168 0 0 1-.043.21.401.401 0 0 1-.065.122.348.348 0 0 1-.148.11.555.555 0 0 1-.212.037.401.401 0 0 1-.285-.089.34.34 0 0 1-.095-.264c0-.016.002-.045.006-.085 0-.041.01-.09.017-.149l.062-.47.207-.002ZM33.561 28.336h-.212l.133-1.027h.21a.912.912 0 0 1 .19.015c.037.008.07.025.1.047a.244.244 0 0 1 .075.09.267.267 0 0 1 .026.117.291.291 0 0 1-.065.195.335.335 0 0 1-.189.102l.23.46h-.23l-.207-.472-.061.473Zm.075-.582h.031a.282.282 0 0 0 .163-.034.134.134 0 0 0 .043-.115.12.12 0 0 0-.036-.101.254.254 0 0 0-.142-.028h-.024l-.035.278ZM34.81 28.336h-.212l.134-1.027h.195a.908.908 0 0 1 .2.016.25.25 0 0 1 .18.154.378.378 0 0 1-.004.284.299.299 0 0 1-.203.169.822.822 0 0 1-.192.016h-.048l-.05.388Zm.075-.567h.026a.272.272 0 0 0 .163-.035.147.147 0 0 0 .043-.12.122.122 0 0 0-.036-.101.242.242 0 0 0-.142-.029h-.024l-.03.285ZM35.398 28.336l.134-1.027h.212l-.111.845h.351l-.024.182h-.562ZM36.089 28.336l.133-1.027h.6l-.022.181h-.387l-.03.231h.391l-.023.177h-.391l-.033.257h.386l-.024.181h-.6ZM36.802 28.336l.524-1.027h.231l.244 1.027h-.226l-.042-.22h-.385l-.11.22h-.236Zm.691-.39-.048-.241a.859.859 0 0 1-.012-.09c0-.036-.007-.078-.01-.128a1.085 1.085 0 0 1-.07.192l-.123.265.263.003ZM37.975 28.06c.02.039.047.07.082.094.033.021.072.032.111.03a.149.149 0 0 0 .107-.037.137.137 0 0 0 .038-.101.14.14 0 0 0-.023-.076.203.203 0 0 0-.067-.058l-.033-.018a.686.686 0 0 1-.167-.117.263.263 0 0 1-.047-.081.309.309 0 0 1 .078-.322.33.33 0 0 1 .237-.088c.053 0 .106.01.154.032.045.025.084.06.114.102l-.11.142a.202.202 0 0 0-.065-.076.17.17 0 0 0-.092-.025.142.142 0 0 0-.1.034.109.109 0 0 0-.038.088c0 .047.041.093.125.142l.037.022c.061.031.114.077.155.133.029.051.043.11.04.169a.302.302 0 0 1-.1.231.356.356 0 0 1-.253.089.373.373 0 0 1-.17-.039.386.386 0 0 1-.135-.118l.122-.151ZM38.973 27.31l-.076.58c0 .015 0 .03-.005.048-.005.017 0 .036 0 .057a.205.205 0 0 0 .046.143.176.176 0 0 0 .133.049.202.202 0 0 0 .187-.102.72.72 0 0 0 .064-.251v-.014l.068-.509h.21l-.076.578a1.109 1.109 0 0 1-.042.21.422.422 0 0 1-.065.12.35.35 0 0 1-.15.111.549.549 0 0 1-.21.037.401.401 0 0 1-.286-.089.34.34 0 0 1-.094-.264c0-.016.002-.045.006-.085 0-.041.009-.09.017-.149l.06-.47h.213ZM39.897 28.336h-.214l.135-1.027h.21a.912.912 0 0 1 .19.015c.036.008.07.025.1.047a.245.245 0 0 1 .074.09.267.267 0 0 1 .026.117.287.287 0 0 1-.066.195.33.33 0 0 1-.187.102l.23.46h-.233l-.207-.472-.058.473Zm.074-.582h.032a.281.281 0 0 0 .163-.034.137.137 0 0 0 .043-.115.118.118 0 0 0-.036-.101.256.256 0 0 0-.142-.028h-.024l-.036.278ZM40.508 28.336l.134-1.027h.6l-.021.181h-.392l-.03.231h.391l-.023.177h-.391l-.034.257h.392l-.024.181h-.602ZM41.313 28.56h-.143l.243-.43h.214l-.314.43ZM42.703 28.364a.492.492 0 0 1-.365-.134.481.481 0 0 1-.136-.36.603.603 0 0 1 .148-.398.54.54 0 0 1 .19-.14.598.598 0 0 1 .239-.047.493.493 0 0 1 .364.133.466.466 0 0 1 .137.352.661.661 0 0 1-.035.216.561.561 0 0 1-.1.178.559.559 0 0 1-.2.149.594.594 0 0 1-.242.05Zm.065-.892a.315.315 0 0 0-.25.112.41.41 0 0 0-.1.282.32.32 0 0 0 .08.227.284.284 0 0 0 .215.085.317.317 0 0 0 .249-.114.41.41 0 0 0 .1-.282.317.317 0 0 0-.08-.227.284.284 0 0 0-.214-.083ZM43.723 27.31l-.077.58V27.995a.206.206 0 0 0 .045.143.177.177 0 0 0 .134.049.223.223 0 0 0 .11-.026.217.217 0 0 0 .077-.076.72.72 0 0 0 .063-.265l.067-.509h.21l-.074.578a1.177 1.177 0 0 1-.043.21.377.377 0 0 1-.214.232.556.556 0 0 1-.212.037.404.404 0 0 1-.285-.089.343.343 0 0 1-.095-.264c0-.016.002-.045.006-.085 0-.041.01-.09.017-.149l.062-.47.209-.002ZM44.648 28.336h-.212l.133-1.027h.21a.929.929 0 0 1 .192.015.271.271 0 0 1 .175.137.267.267 0 0 1 .025.117.291.291 0 0 1-.065.195.337.337 0 0 1-.187.102l.229.46h-.232l-.209-.472-.059.473Zm.075-.582h.031a.282.282 0 0 0 .164-.034.134.134 0 0 0 .043-.115.12.12 0 0 0-.036-.102.253.253 0 0 0-.143-.027h-.024l-.035.278ZM45.836 28.336l.109-.847h-.262l.024-.18h.72l-.023.18h-.245l-.109.847h-.214ZM46.64 28.336h-.213l.133-1.027h.211a.913.913 0 0 1 .19.015c.037.008.07.024.1.047a.237.237 0 0 1 .076.09.265.265 0 0 1 .025.117.286.286 0 0 1-.066.195.332.332 0 0 1-.187.102l.23.46h-.233l-.208-.472-.057.473Zm.075-.582h.031a.28.28 0 0 0 .163-.034.133.133 0 0 0 .043-.115.118.118 0 0 0-.036-.101.253.253 0 0 0-.142-.028h-.024l-.035.278ZM47.253 28.336l.133-1.027h.6l-.021.181h-.393l-.029.231h.39l-.022.177h-.392l-.033.257h.393l-.024.181h-.602ZM47.967 28.336l.523-1.027h.232l.243 1.027h-.225l-.042-.22h-.386l-.109.22h-.236Zm.69-.39-.047-.241c0-.025-.01-.055-.013-.09a2.55 2.55 0 0 1-.01-.128 1.085 1.085 0 0 1-.07.192l-.123.265.264.003ZM49.138 28.06c.02.038.049.07.084.094a.198.198 0 0 0 .11.03.145.145 0 0 0 .106-.037.132.132 0 0 0 .039-.101.14.14 0 0 0-.022-.076.203.203 0 0 0-.067-.058l-.033-.018a.684.684 0 0 1-.168-.117.262.262 0 0 1-.047-.081.31.31 0 0 1 .315-.41c.053 0 .106.01.154.032a.315.315 0 0 1 .113.102l-.108.142a.202.202 0 0 0-.066-.076.169.169 0 0 0-.091-.025.142.142 0 0 0-.1.034.11.11 0 0 0-.038.088c0 .047.04.093.125.142l.037.022a.45.45 0 0 1 .154.133c.03.051.043.11.041.169a.302.302 0 0 1-.1.232.357.357 0 0 1-.253.088.373.373 0 0 1-.172-.039.386.386 0 0 1-.134-.118l.121-.151ZM50.138 27.31l-.077.58V27.995a.205.205 0 0 0 .046.143.175.175 0 0 0 .133.049.202.202 0 0 0 .187-.102.72.72 0 0 0 .063-.251v-.014l.068-.509h.21l-.075.578a1.109 1.109 0 0 1-.043.21.424.424 0 0 1-.065.122.35.35 0 0 1-.149.11.55.55 0 0 1-.211.037.401.401 0 0 1-.286-.089.34.34 0 0 1-.094-.264c0-.016.002-.045.006-.085 0-.041.01-.09.017-.149l.06-.47.21-.002ZM51.061 28.336h-.213l.133-1.027h.211a.912.912 0 0 1 .19.015.265.265 0 0 1 .176.137.267.267 0 0 1 .025.117.286.286 0 0 1-.065.195.332.332 0 0 1-.188.102l.23.46h-.227l-.207-.472-.065.473Zm.074-.582h.031a.285.285 0 0 0 .164-.034.136.136 0 0 0 .043-.115.116.116 0 0 0-.037-.101.251.251 0 0 0-.14-.028h-.025l-.036.278ZM51.673 28.336l.133-1.027h.6l-.021.181h-.392l-.03.231h.39l-.021.177h-.393l-.033.257h.393l-.024.181h-.602Z" fill="#1E293B"/></g><defs><clipPath id="clip0_77_209"><path fill="#fff" d="M0 0h54v30H0z"/></clipPath></defs></svg>